<mxfile host="app.diagrams.net" agent="Mozilla/5.0 (X11; Linux x86_64; rv:130.0) Gecko/20100101 Firefox/130.0" version="24.7.12">
  <diagram name="Página-1" id="eH7PgjuDHwnGzZdECt1M">
    <mxGraphModel dx="2575" dy="1151" grid="1" gridSize="10" guides="1" tooltips="1" connect="1" arrows="1" fold="1" page="1" pageScale="1" pageWidth="827" pageHeight="1169" math="0" shadow="0">
      <root>
        <mxCell id="0" />
        <mxCell id="1" parent="0" />
        <mxCell id="uoTYtuNdUCFG0Z2dD04v-12" value="" style="rounded=1;whiteSpace=wrap;html=1;fillColor=#f5f5f5;fontColor=#333333;strokeColor=#666666;strokeWidth=4;shadow=1;" parent="1" vertex="1">
          <mxGeometry x="2450" y="1080" width="640" height="410" as="geometry" />
        </mxCell>
        <mxCell id="uoTYtuNdUCFG0Z2dD04v-7" value="&lt;div&gt;&lt;b&gt;&lt;span style=&quot;margin: 0px; padding: 0px; user-select: text; font-variant-ligatures: none !important; color: rgb(0, 0, 0); font-style: normal; font-variant-caps: normal; letter-spacing: normal; text-align: left; text-indent: 0px; text-transform: none; word-spacing: 0px; -webkit-text-stroke-width: 0px; white-space: pre-wrap; text-decoration-thickness: initial; text-decoration-style: initial; text-decoration-color: initial; font-size: 12pt; line-height: 20.925px; font-family: WordVisi_MSFontService, Aptos, Aptos_EmbeddedFont, Aptos_MSFontService, sans-serif;&quot; class=&quot;TextRun SCXW17088680 BCX8&quot; lang=&quot;CA-ES-VALENCIA&quot; data-contrast=&quot;auto&quot;&gt;&lt;span style=&quot;-webkit-user-drag: none; -webkit-tap-highlight-color: transparent; margin: 0px; padding: 0px; user-select: text;&quot; class=&quot;NormalTextRun SCXW17088680 BCX8&quot;&gt;BLOC 3: PÍNDOLES FORMATIVES&lt;/span&gt;&lt;/span&gt;&lt;/b&gt;&lt;/div&gt;" style="swimlane;fontStyle=0;childLayout=stackLayout;horizontal=1;startSize=30;horizontalStack=0;resizeParent=1;resizeParentMax=0;resizeLast=0;collapsible=1;marginBottom=0;whiteSpace=wrap;html=1;fillColor=#ffe6cc;strokeColor=#d79b00;rounded=0;" parent="1" vertex="1">
          <mxGeometry x="2560" y="1150" width="430" height="180" as="geometry" />
        </mxCell>
        <mxCell id="uoTYtuNdUCFG0Z2dD04v-8" value="&lt;p style=&quot;line-height: 150%; font-size: 16px;&quot;&gt;&lt;/p&gt;&lt;div style=&quot;font-size: 16px;&quot;&gt;&lt;div style=&quot;margin: 0px; padding: 0px; user-select: text; position: relative; color: rgb(0, 0, 0); font-family: Aptos, Aptos_MSFontService, sans-serif; font-style: normal; font-variant-ligatures: normal; font-variant-caps: normal; font-weight: 400; letter-spacing: normal; text-indent: 0px; text-transform: none; word-spacing: 0px; -webkit-text-stroke-width: 0px; white-space: normal; text-decoration-thickness: initial; text-decoration-style: initial; text-decoration-color: initial; font-size: 16px;&quot; class=&quot;ListContainerWrapper SCXW63860411 BCX8&quot;&gt;&lt;ol style=&quot;line-height: 160%; font-size: 16px;&quot;&gt;&lt;li style=&quot;margin: 0px; padding: 0px; user-select: text; overflow-wrap: break-word; white-space: pre-wrap; font-weight: normal; font-style: normal; vertical-align: baseline; font-kerning: none; color: windowtext; text-indent: 0px; font-size: 16px;&quot; class=&quot;Paragraph SCXW132095863 BCX8&quot;&gt;&lt;span style=&quot;margin: 0px; padding: 0px; user-select: text; font-variant-ligatures: none !important; line-height: 20.925px; font-family: WordVisi_MSFontService, Aptos, Aptos_EmbeddedFont, Aptos_MSFontService, sans-serif; font-size: 16px;&quot; class=&quot;TextRun SCXW132095863 BCX8&quot; lang=&quot;ES-ES&quot; data-contrast=&quot;auto&quot;&gt;&lt;span style=&quot;margin: 0px; padding: 0px; user-select: text; font-size: 16px;&quot; class=&quot;NormalTextRun SCXW132095863 BCX8&quot;&gt;Mòdul de &lt;/span&gt;&lt;span style=&quot;margin: 0px; padding: 0px; user-select: text; font-size: 16px;&quot; class=&quot;NormalTextRun SCXW132095863 BCX8&quot;&gt;Digitalització&lt;/span&gt;&lt;span style=&quot;margin: 0px; padding: 0px; user-select: text; font-size: 16px;&quot; class=&quot;NormalTextRun SCXW132095863 BCX8&quot;&gt;&amp;nbsp;&lt;/span&gt;&lt;/span&gt;&lt;span style=&quot;margin: 0px; padding: 0px; user-select: text; line-height: 20.925px; font-family: WordVisiPilcrow_MSFontService, Aptos, Aptos_EmbeddedFont, Aptos_MSFontService, sans-serif; font-size: 16px;&quot; data-ccp-props=&quot;{&amp;quot;201341983&amp;quot;:0,&amp;quot;335559740&amp;quot;:279}&quot; class=&quot;EOP SCXW132095863 BCX8&quot;&gt;&amp;nbsp;&lt;/span&gt;&lt;/li&gt;&lt;li style=&quot;margin: 0px; padding: 0px; user-select: text; overflow-wrap: break-word; white-space: pre-wrap; font-weight: normal; font-style: normal; vertical-align: baseline; font-kerning: none; color: windowtext; text-indent: 0px; font-size: 16px;&quot; class=&quot;Paragraph SCXW132095863 BCX8&quot;&gt;&lt;span style=&quot;margin: 0px; padding: 0px; user-select: text; font-variant-ligatures: none !important; line-height: 20.925px; font-family: WordVisi_MSFontService, Aptos, Aptos_EmbeddedFont, Aptos_MSFontService, sans-serif; font-size: 16px;&quot; class=&quot;TextRun SCXW132095863 BCX8&quot; lang=&quot;ES-ES&quot; data-contrast=&quot;auto&quot;&gt;&lt;span style=&quot;margin: 0px; padding: 0px; user-select: text; font-size: 16px;&quot; class=&quot;NormalTextRun SCXW132095863 BCX8&quot;&gt;Mòdul de &lt;/span&gt;&lt;span style=&quot;margin: 0px; padding: 0px; user-select: text; font-size: 16px;&quot; class=&quot;NormalTextRun SCXW132095863 BCX8&quot;&gt;Sostenibilitat&lt;/span&gt;&lt;span style=&quot;margin: 0px; padding: 0px; user-select: text; font-size: 16px;&quot; class=&quot;NormalTextRun SCXW132095863 BCX8&quot;&gt;&amp;nbsp;&lt;/span&gt;&lt;/span&gt;&lt;span style=&quot;margin: 0px; padding: 0px; user-select: text; line-height: 20.925px; font-family: WordVisiPilcrow_MSFontService, Aptos, Aptos_EmbeddedFont, Aptos_MSFontService, sans-serif; font-size: 16px;&quot; data-ccp-props=&quot;{&amp;quot;201341983&amp;quot;:0,&amp;quot;335559740&amp;quot;:279}&quot; class=&quot;EOP SCXW132095863 BCX8&quot;&gt;&amp;nbsp;&lt;/span&gt;&lt;/li&gt;&lt;li style=&quot;margin: 0px; padding: 0px; user-select: text; overflow-wrap: break-word; white-space: pre-wrap; font-weight: normal; font-style: normal; vertical-align: baseline; font-kerning: none; color: windowtext; text-indent: 0px; font-size: 16px;&quot; class=&quot;Paragraph SCXW132095863 BCX8&quot;&gt;&lt;span style=&quot;margin: 0px; padding: 0px; user-select: text; font-variant-ligatures: none !important; line-height: 20.925px; font-family: WordVisi_MSFontService, Aptos, Aptos_EmbeddedFont, Aptos_MSFontService, sans-serif; font-size: 16px;&quot; class=&quot;TextRun SCXW132095863 BCX8&quot; lang=&quot;ES-ES&quot; data-contrast=&quot;auto&quot;&gt;&lt;span style=&quot;margin: 0px; padding: 0px; user-select: text; font-size: 16px;&quot; class=&quot;NormalTextRun SCXW132095863 BCX8&quot;&gt;Mòdul &lt;/span&gt;&lt;span style=&quot;margin: 0px; padding: 0px; user-select: text; font-size: 16px;&quot; class=&quot;NormalTextRun SCXW132095863 BCX8&quot;&gt;Optatiu&lt;/span&gt;&lt;span style=&quot;margin: 0px; padding: 0px; user-select: text; font-size: 16px;&quot; class=&quot;NormalTextRun SCXW132095863 BCX8&quot;&gt;&amp;nbsp;&lt;/span&gt;&lt;/span&gt;&lt;span style=&quot;margin: 0px; padding: 0px; user-select: text; line-height: 20.925px; font-family: WordVisiPilcrow_MSFontService, Aptos, Aptos_EmbeddedFont, Aptos_MSFontService, sans-serif; font-size: 16px;&quot; data-ccp-props=&quot;{&amp;quot;201341983&amp;quot;:0,&amp;quot;335559740&amp;quot;:279}&quot; class=&quot;EOP SCXW132095863 BCX8&quot;&gt;&amp;nbsp;&lt;/span&gt;&lt;/li&gt;&lt;li style=&quot;margin: 0px; padding: 0px; user-select: text; overflow-wrap: break-word; white-space: pre-wrap; font-weight: normal; font-style: normal; vertical-align: baseline; font-kerning: none; color: windowtext; text-indent: 0px; font-size: 16px;&quot; class=&quot;Paragraph SCXW132095863 BCX8&quot;&gt;&lt;span style=&quot;margin: 0px; padding: 0px; user-select: text; font-variant-ligatures: none !important; line-height: 20.925px; font-family: WordVisi_MSFontService, Aptos, Aptos_EmbeddedFont, Aptos_MSFontService, sans-serif; font-size: 16px;&quot; class=&quot;TextRun SCXW132095863 BCX8&quot; lang=&quot;CA-ES-VALENCIA&quot; data-contrast=&quot;auto&quot;&gt;&lt;span style=&quot;margin: 0px; padding: 0px; user-select: text; font-size: 16px;&quot; class=&quot;NormalTextRun SCXW132095863 BCX8&quot;&gt;Mòdul Projecte&lt;/span&gt;&lt;/span&gt;&lt;span style=&quot;margin: 0px; padding: 0px; user-select: text; line-height: 20.925px; font-family: WordVisiPilcrow_MSFontService, Aptos, Aptos_EmbeddedFont, Aptos_MSFontService, sans-serif; font-size: 16px;&quot; data-ccp-props=&quot;{&amp;quot;201341983&amp;quot;:0,&amp;quot;335559740&amp;quot;:279}&quot; class=&quot;EOP SCXW132095863 BCX8&quot;&gt;&amp;nbsp;&lt;/span&gt;&lt;/li&gt;&lt;li style=&quot;margin: 0px; padding: 0px; user-select: text; overflow-wrap: break-word; white-space: pre-wrap; font-weight: normal; font-style: normal; vertical-align: baseline; font-kerning: none; color: windowtext; text-indent: 0px; font-size: 16px;&quot; class=&quot;Paragraph SCXW132095863 BCX8&quot;&gt;&lt;span style=&quot;margin: 0px; padding: 0px; user-select: text; font-variant-ligatures: none !important; line-height: 20.925px; font-family: WordVisi_MSFontService, Aptos, Aptos_EmbeddedFont, Aptos_MSFontService, sans-serif; font-size: 16px;&quot; class=&quot;TextRun SCXW132095863 BCX8&quot; lang=&quot;ES-ES&quot; data-contrast=&quot;auto&quot;&gt;&lt;span style=&quot;margin: 0px; padding: 0px; user-select: text; font-size: 16px;&quot; class=&quot;NormalTextRun SCXW132095863 BCX8&quot;&gt;Explicació&lt;/span&gt;&lt;span style=&quot;margin: 0px; padding: 0px; user-select: text; font-size: 16px;&quot; class=&quot;NormalTextRun SCXW132095863 BCX8&quot;&gt; &lt;/span&gt;&lt;span style=&quot;margin: 0px; padding: 0px; user-select: text; font-size: 16px;&quot; class=&quot;NormalTextRun SCXW132095863 BCX8&quot;&gt;Borsa&lt;/span&gt;&lt;span style=&quot;margin: 0px; padding: 0px; user-select: text; font-size: 16px;&quot; class=&quot;NormalTextRun SCXW132095863 BCX8&quot;&gt; &lt;/span&gt;&lt;span style=&quot;margin: 0px; padding: 0px; user-select: text; font-size: 16px;&quot; class=&quot;NormalTextRun SCXW132095863 BCX8&quot;&gt;d’hores&lt;/span&gt;&lt;span style=&quot;margin: 0px; padding: 0px; user-select: text; font-size: 16px;&quot; class=&quot;NormalTextRun SCXW132095863 BCX8&quot;&gt; &lt;/span&gt;&lt;span style=&quot;margin: 0px; padding: 0px; user-select: text; font-size: 16px;&quot; class=&quot;NormalTextRun SCXW132095863 BCX8&quot;&gt;dels&lt;/span&gt;&lt;span style=&quot;margin: 0px; padding: 0px; user-select: text; font-size: 16px;&quot; class=&quot;NormalTextRun SCXW132095863 BCX8&quot;&gt; centres&lt;/span&gt;&lt;/span&gt;&lt;/li&gt;&lt;/ol&gt;&lt;/div&gt;&lt;/div&gt;&lt;p style=&quot;font-size: 16px;&quot;&gt;&lt;/p&gt;" style="text;strokeColor=#d6b656;fillColor=#fff2cc;align=left;verticalAlign=middle;spacingLeft=0;spacingRight=0;overflow=hidden;points=[[0,0.5],[1,0.5]];portConstraint=eastwest;rotatable=0;html=1;fontSize=16;textShadow=0;textDirection=ltr;rounded=0;whiteSpace=wrap;" parent="uoTYtuNdUCFG0Z2dD04v-7" vertex="1">
          <mxGeometry y="30" width="430" height="150" as="geometry" />
        </mxCell>
        <mxCell id="Deo-XTgwxfXZPfIPofkY-64" value="" style="rounded=1;whiteSpace=wrap;html=1;fillColor=#f5f5f5;fontColor=#333333;strokeColor=#666666;strokeWidth=4;shadow=1;" parent="1" vertex="1">
          <mxGeometry x="976" y="320" width="530" height="810" as="geometry" />
        </mxCell>
        <mxCell id="Deo-XTgwxfXZPfIPofkY-63" value="" style="rounded=1;whiteSpace=wrap;html=1;fillColor=#f5f5f5;fontColor=#333333;strokeColor=#666666;strokeWidth=4;shadow=1;" parent="1" vertex="1">
          <mxGeometry x="285" y="260" width="530" height="1360" as="geometry" />
        </mxCell>
        <mxCell id="Deo-XTgwxfXZPfIPofkY-43" style="edgeStyle=orthogonalEdgeStyle;rounded=0;orthogonalLoop=1;jettySize=auto;html=1;entryX=0.5;entryY=0;entryDx=0;entryDy=0;strokeWidth=5;" parent="1" edge="1">
          <mxGeometry relative="1" as="geometry">
            <mxPoint x="555" y="890" as="sourcePoint" />
          </mxGeometry>
        </mxCell>
        <mxCell id="Deo-XTgwxfXZPfIPofkY-44" style="edgeStyle=orthogonalEdgeStyle;rounded=0;orthogonalLoop=1;jettySize=auto;html=1;entryX=0.5;entryY=0;entryDx=0;entryDy=0;strokeWidth=5;" parent="1" edge="1">
          <mxGeometry relative="1" as="geometry">
            <mxPoint x="555" y="1130" as="sourcePoint" />
          </mxGeometry>
        </mxCell>
        <mxCell id="Deo-XTgwxfXZPfIPofkY-46" style="edgeStyle=orthogonalEdgeStyle;rounded=0;orthogonalLoop=1;jettySize=auto;html=1;entryX=0.5;entryY=0;entryDx=0;entryDy=0;strokeWidth=4;" parent="1" edge="1">
          <mxGeometry relative="1" as="geometry">
            <mxPoint x="555" y="1390" as="sourcePoint" />
          </mxGeometry>
        </mxCell>
        <mxCell id="Deo-XTgwxfXZPfIPofkY-47" value="BLOC: CONTINGUTS CURRICULARS BÀSICS" style="swimlane;fontStyle=0;childLayout=stackLayout;horizontal=1;startSize=30;horizontalStack=0;resizeParent=1;resizeParentMax=0;resizeLast=0;collapsible=1;marginBottom=0;whiteSpace=wrap;html=1;fillColor=#ffe6cc;strokeColor=#d79b00;perimeterSpacing=0;rounded=0;shadow=1;swimlaneLine=0;" parent="1" vertex="1">
          <mxGeometry x="1031" y="630" width="420" height="190" as="geometry">
            <mxRectangle x="995" y="630" width="260" height="30" as="alternateBounds" />
          </mxGeometry>
        </mxCell>
        <mxCell id="Deo-XTgwxfXZPfIPofkY-48" value="" style="text;strokeColor=#d6b656;fillColor=#fff2cc;align=left;verticalAlign=middle;spacingLeft=0;spacingRight=0;overflow=hidden;points=[[0,0.5],[1,0.5]];portConstraint=eastwest;rotatable=0;html=1;fontSize=16;textShadow=0;textDirection=ltr;rounded=0;glass=0;shadow=0;whiteSpace=wrap;" parent="Deo-XTgwxfXZPfIPofkY-47" vertex="1">
          <mxGeometry y="30" width="420" height="160" as="geometry" />
        </mxCell>
        <mxCell id="Deo-XTgwxfXZPfIPofkY-53" value="&lt;div&gt;BLOC: CONTINGUTS CURRICULARS ESPECÍFICS FAM. PROF.&lt;br&gt;&lt;/div&gt;" style="swimlane;fontStyle=0;childLayout=stackLayout;horizontal=1;startSize=30;horizontalStack=0;resizeParent=1;resizeParentMax=0;resizeLast=0;collapsible=1;marginBottom=0;whiteSpace=wrap;html=1;fillColor=#ffe6cc;strokeColor=#d79b00;rounded=0;" parent="1" vertex="1">
          <mxGeometry x="1026" y="870" width="430" height="180" as="geometry" />
        </mxCell>
        <mxCell id="Deo-XTgwxfXZPfIPofkY-54" value="" style="text;strokeColor=#d6b656;fillColor=#fff2cc;align=left;verticalAlign=middle;spacingLeft=0;spacingRight=0;overflow=hidden;points=[[0,0.5],[1,0.5]];portConstraint=eastwest;rotatable=0;html=1;fontSize=16;textShadow=0;textDirection=ltr;rounded=0;whiteSpace=wrap;" parent="Deo-XTgwxfXZPfIPofkY-53" vertex="1">
          <mxGeometry y="30" width="430" height="150" as="geometry" />
        </mxCell>
        <mxCell id="Deo-XTgwxfXZPfIPofkY-55" style="edgeStyle=orthogonalEdgeStyle;rounded=0;orthogonalLoop=1;jettySize=auto;html=1;entryX=0.5;entryY=0;entryDx=0;entryDy=0;strokeWidth=4;" parent="1" edge="1">
          <mxGeometry relative="1" as="geometry">
            <mxPoint x="865" y="1093" as="targetPoint" />
          </mxGeometry>
        </mxCell>
        <mxCell id="Deo-XTgwxfXZPfIPofkY-65" value="&lt;div align=&quot;center&quot;&gt;&lt;font style=&quot;font-size: 41px;&quot;&gt;FORMACIÓ INICIAL&lt;/font&gt;&lt;br&gt;&lt;/div&gt;" style="text;html=1;align=center;verticalAlign=middle;whiteSpace=wrap;rounded=0;fontColor=#666666;" parent="1" vertex="1">
          <mxGeometry x="455" y="320" width="160" height="30" as="geometry" />
        </mxCell>
        <mxCell id="Deo-XTgwxfXZPfIPofkY-67" value="&lt;div align=&quot;center&quot;&gt;&lt;font style=&quot;font-size: 41px;&quot;&gt;FORMACIÓ PER AL MÒDUL DE DIGITALITZACIÓ&lt;/font&gt;&lt;br&gt;&lt;/div&gt;" style="text;html=1;align=center;verticalAlign=middle;whiteSpace=wrap;rounded=0;fontColor=#666666;" parent="1" vertex="1">
          <mxGeometry x="1065" y="364" width="350" height="90" as="geometry" />
        </mxCell>
        <mxCell id="Deo-XTgwxfXZPfIPofkY-70" value="&lt;div style=&quot;font-size: 53px;&quot;&gt;&lt;font style=&quot;font-size: 53px;&quot;&gt;&lt;b&gt;NOVA LLEI DE FORMACIÓ PROFESSIONAL&lt;/b&gt;&lt;/font&gt;&lt;/div&gt;&lt;div style=&quot;font-size: 43px;&quot;&gt;&lt;font style=&quot;font-size: 43px;&quot;&gt;&lt;b style=&quot;&quot;&gt;OFERTA FORMATIVA&lt;/b&gt;&lt;font style=&quot;font-size: 43px;&quot;&gt;&lt;b&gt;&lt;br&gt;&lt;/b&gt;&lt;/font&gt;&lt;/font&gt;&lt;/div&gt;&lt;div style=&quot;font-size: 35px;&quot;&gt;&lt;font style=&quot;font-size: 35px;&quot;&gt;&lt;font style=&quot;font-size: 35px;&quot;&gt;MODALITAT EN LÍNIA&lt;b&gt;&lt;br&gt;&lt;/b&gt;&lt;/font&gt;&lt;/font&gt;&lt;/div&gt;" style="text;html=1;align=center;verticalAlign=middle;whiteSpace=wrap;rounded=0;" parent="1" vertex="1">
          <mxGeometry x="516" y="30" width="1460" height="130" as="geometry" />
        </mxCell>
        <mxCell id="Deo-XTgwxfXZPfIPofkY-71" value="&lt;p style=&quot;line-height: 210%;&quot;&gt;&lt;font style=&quot;font-size: 19px;&quot;&gt;&lt;b&gt;OBJETIU: &lt;/b&gt;Facilitar la comprensió dels canvis legislatius per una implentació efectiva de la norma a l&#39;àmbit educatiu&lt;b&gt;&lt;br&gt;&lt;/b&gt;&lt;/font&gt;&lt;/p&gt;" style="text;html=1;align=center;verticalAlign=middle;whiteSpace=wrap;rounded=0;" parent="1" vertex="1">
          <mxGeometry x="355" y="400" width="370" height="91" as="geometry" />
        </mxCell>
        <mxCell id="Deo-XTgwxfXZPfIPofkY-72" value="&lt;p style=&quot;line-height: 210%;&quot;&gt;&lt;font style=&quot;font-size: 19px;&quot;&gt;&lt;b&gt;OBJETIU: &lt;/b&gt;Concretar la implentació de forma específica segons la familia professional a la que va dirigida&lt;b&gt;&lt;br&gt;&lt;/b&gt;&lt;/font&gt;&lt;/p&gt;" style="text;html=1;align=center;verticalAlign=middle;whiteSpace=wrap;rounded=0;" parent="1" vertex="1">
          <mxGeometry x="1061" y="500" width="370" height="91" as="geometry" />
        </mxCell>
        <mxCell id="zjhLIh4-YKo7ULmHxG4K-2" value="&lt;div&gt;&lt;span style=&quot;margin: 0px; padding: 0px; user-select: text; color: rgb(0, 0, 0); font-family: WordVisi_MSFontService, Aptos, Aptos_EmbeddedFont, Aptos_MSFontService, sans-serif; font-size: 16px; font-style: normal; font-variant-ligatures: none; font-variant-caps: normal; font-weight: 700; letter-spacing: normal; text-align: left; text-indent: 0px; text-transform: none; word-spacing: 0px; -webkit-text-stroke-width: 0px; white-space: pre-wrap; text-decoration-thickness: initial; text-decoration-style: initial; text-decoration-color: initial;&quot; class=&quot;NormalTextRun SCXW87249612 BCX8&quot;&gt;BLO&lt;/span&gt;&lt;span style=&quot;margin: 0px; padding: 0px; user-select: text; color: rgb(0, 0, 0); font-family: WordVisi_MSFontService, Aptos, Aptos_EmbeddedFont, Aptos_MSFontService, sans-serif; font-size: 16px; font-style: normal; font-variant-ligatures: none; font-variant-caps: normal; font-weight: 700; letter-spacing: normal; text-align: left; text-indent: 0px; text-transform: none; word-spacing: 0px; -webkit-text-stroke-width: 0px; white-space: pre-wrap; text-decoration-thickness: initial; text-decoration-style: initial; text-decoration-color: initial;&quot; class=&quot;NormalTextRun SCXW87249612 BCX8&quot;&gt;C&amp;nbsp;&lt;/span&gt;&lt;span style=&quot;margin: 0px; padding: 0px; user-select: text; color: rgb(0, 0, 0); font-family: WordVisi_MSFontService, Aptos, Aptos_EmbeddedFont, Aptos_MSFontService, sans-serif; font-size: 16px; font-style: normal; font-variant-ligatures: none; font-variant-caps: normal; font-weight: 700; letter-spacing: normal; text-align: left; text-indent: 0px; text-transform: none; word-spacing: 0px; -webkit-text-stroke-width: 0px; white-space: pre-wrap; text-decoration-thickness: initial; text-decoration-style: initial; text-decoration-color: initial;&quot; class=&quot;NormalTextRun SCXW87249612 BCX8&quot;&gt; &lt;/span&gt;&lt;span style=&quot;margin: 0px; padding: 0px; user-select: text; color: rgb(0, 0, 0); font-family: WordVisi_MSFontService, Aptos, Aptos_EmbeddedFont, Aptos_MSFontService, sans-serif; font-size: 16px; font-style: normal; font-variant-ligatures: none; font-variant-caps: normal; font-weight: 700; letter-spacing: normal; text-align: left; text-indent: 0px; text-transform: none; word-spacing: 0px; -webkit-text-stroke-width: 0px; white-space: pre-wrap; text-decoration-thickness: initial; text-decoration-style: initial; text-decoration-color: initial;&quot; class=&quot;NormalTextRun SCXW87249612 BCX8&quot;&gt;3: &lt;/span&gt;&lt;span style=&quot;margin: 0px; padding: 0px; user-select: text; font-variant-ligatures: none !important; color: rgb(0, 0, 0); font-style: normal; font-variant-caps: normal; font-weight: 400; letter-spacing: normal; text-align: left; text-indent: 0px; text-transform: none; word-spacing: 0px; -webkit-text-stroke-width: 0px; white-space: pre-wrap; text-decoration-thickness: initial; text-decoration-style: initial; text-decoration-color: initial; font-size: 12pt; line-height: 20.925px; font-family: WordVisi_MSFontService, Aptos, Aptos_EmbeddedFont, Aptos_MSFontService, sans-serif;&quot; class=&quot;TextRun SCXW27911936 BCX8&quot; lang=&quot;CA-ES-VALENCIA&quot; data-contrast=&quot;auto&quot;&gt;&lt;span style=&quot;-webkit-user-drag: none; -webkit-tap-highlight-color: transparent; margin: 0px; padding: 0px; user-select: text;&quot; class=&quot;NormalTextRun SCXW27911936 BCX8&quot;&gt;CONCEPT&lt;/span&gt;&lt;span style=&quot;-webkit-user-drag: none; -webkit-tap-highlight-color: transparent; margin: 0px; padding: 0px; user-select: text;&quot; class=&quot;NormalTextRun SCXW27911936 BCX8&quot;&gt;E&lt;/span&gt;&lt;span style=&quot;-webkit-user-drag: none; -webkit-tap-highlight-color: transparent; margin: 0px; padding: 0px; user-select: text;&quot; class=&quot;NormalTextRun SCXW27911936 BCX8&quot;&gt;S B&lt;/span&gt;&lt;span style=&quot;-webkit-user-drag: none; -webkit-tap-highlight-color: transparent; margin: 0px; padding: 0px; user-select: text;&quot; class=&quot;NormalTextRun SCXW27911936 BCX8&quot;&gt;À&lt;/span&gt;&lt;span style=&quot;-webkit-user-drag: none; -webkit-tap-highlight-color: transparent; margin: 0px; padding: 0px; user-select: text;&quot; class=&quot;NormalTextRun SCXW27911936 BCX8&quot;&gt;SICS&lt;/span&gt;&lt;/span&gt;&lt;span style=&quot;margin: 0px; padding: 0px; user-select: text; color: rgb(0, 0, 0); font-style: normal; font-variant-ligatures: normal; font-variant-caps: normal; font-weight: 400; letter-spacing: normal; text-align: left; text-indent: 0px; text-transform: none; word-spacing: 0px; -webkit-text-stroke-width: 0px; white-space: pre-wrap; text-decoration-thickness: initial; text-decoration-style: initial; text-decoration-color: initial; font-size: 12pt; line-height: 20.925px; font-family: Aptos, Aptos_EmbeddedFont, Aptos_MSFontService, sans-serif;&quot; data-ccp-props=&quot;{&amp;quot;201341983&amp;quot;:0,&amp;quot;335559740&amp;quot;:279}&quot; class=&quot;EOP SCXW27911936 BCX8&quot;&gt;&lt;br&gt;&lt;/span&gt;&lt;/div&gt;" style="swimlane;fontStyle=0;childLayout=stackLayout;horizontal=1;startSize=30;horizontalStack=0;resizeParent=1;resizeParentMax=0;resizeLast=0;collapsible=1;marginBottom=0;whiteSpace=wrap;html=1;fillColor=#ffe6cc;strokeColor=#d79b00;rounded=0;" parent="1" vertex="1">
          <mxGeometry x="345" y="1015" width="420" height="190" as="geometry" />
        </mxCell>
        <mxCell id="zjhLIh4-YKo7ULmHxG4K-3" value="&lt;p style=&quot;line-height: 130%; font-size: 16px;&quot;&gt;&lt;/p&gt;&lt;ol style=&quot;font-size: 16px; line-height: 150%;&quot;&gt;&lt;li style=&quot;font-size: 16px;&quot;&gt;EL INCUAL&lt;/li&gt;&lt;li style=&quot;font-size: 16px;&quot;&gt;El Catàleg Nacional de Qualificacions / Catàleg d&#39;Estàndards de Competència&lt;/li&gt;&lt;li style=&quot;font-size: 16px;&quot;&gt;Unitat de Competència/ Estàndard de Competència &lt;/li&gt;&lt;li style=&quot;font-size: 16px;&quot;&gt;Certificats de professionalitat / Certificats Professionals &lt;/li&gt;&lt;li style=&quot;font-size: 16px;&quot;&gt;Acreditació de competències &lt;/li&gt;&lt;/ol&gt;&lt;p style=&quot;font-size: 16px;&quot;&gt;&lt;/p&gt;" style="text;strokeColor=#d6b656;fillColor=#fff2cc;align=left;verticalAlign=middle;spacingLeft=0;spacingRight=0;overflow=hidden;points=[[0,0.5],[1,0.5]];portConstraint=eastwest;rotatable=0;html=1;fontSize=16;textShadow=0;textDirection=ltr;rounded=0;whiteSpace=wrap;" parent="zjhLIh4-YKo7ULmHxG4K-2" vertex="1">
          <mxGeometry y="30" width="420" height="160" as="geometry" />
        </mxCell>
        <mxCell id="zjhLIh4-YKo7ULmHxG4K-16" style="edgeStyle=orthogonalEdgeStyle;rounded=0;orthogonalLoop=1;jettySize=auto;html=1;entryX=0.5;entryY=0;entryDx=0;entryDy=0;strokeWidth=4;" parent="1" source="zjhLIh4-YKo7ULmHxG4K-4" target="zjhLIh4-YKo7ULmHxG4K-10" edge="1">
          <mxGeometry relative="1" as="geometry" />
        </mxCell>
        <mxCell id="zjhLIh4-YKo7ULmHxG4K-4" value="&lt;div align=&quot;center&quot;&gt;&lt;span style=&quot;margin: 0px; padding: 0px; user-select: text; font-variant-ligatures: none !important; color: rgb(0, 0, 0); font-style: normal; font-variant-caps: normal; font-weight: 400; letter-spacing: normal; text-indent: 0px; text-transform: none; word-spacing: 0px; -webkit-text-stroke-width: 0px; white-space: pre-wrap; text-decoration-thickness: initial; text-decoration-style: initial; text-decoration-color: initial; font-size: 12pt; line-height: 20.925px; font-family: WordVisi_MSFontService, Aptos, Aptos_EmbeddedFont, Aptos_MSFontService, sans-serif;&quot; class=&quot;TextRun SCXW128102780 BCX8&quot; lang=&quot;CA-ES-VALENCIA&quot; data-contrast=&quot;auto&quot;&gt;&lt;span style=&quot;-webkit-user-drag: none; -webkit-tap-highlight-color: transparent; margin: 0px; padding: 0px; user-select: text;&quot; class=&quot;NormalTextRun SCXW128102780 BCX8&quot;&gt;&lt;b&gt;BLOC 4: &lt;/b&gt;ORGANI&lt;/span&gt;&lt;span style=&quot;-webkit-user-drag: none; -webkit-tap-highlight-color: transparent; margin: 0px; padding: 0px; user-select: text;&quot; class=&quot;NormalTextRun SCXW128102780 BCX8&quot;&gt;T&lt;/span&gt;&lt;span style=&quot;-webkit-user-drag: none; -webkit-tap-highlight-color: transparent; margin: 0px; padding: 0px; user-select: text;&quot; class=&quot;NormalTextRun SCXW128102780 BCX8&quot;&gt;ZACIÓ, &lt;/span&gt;&lt;span style=&quot;-webkit-user-drag: none; -webkit-tap-highlight-color: transparent; margin: 0px; padding: 0px; user-select: text;&quot; class=&quot;NormalTextRun SCXW128102780 BCX8&quot;&gt;MODALITAT I&lt;/span&gt;&lt;span style=&quot;-webkit-user-drag: none; -webkit-tap-highlight-color: transparent; margin: 0px; padding: 0px; user-select: text;&quot; class=&quot;NormalTextRun SCXW128102780 BCX8&quot;&gt; PLANIFICACIÓ&lt;/span&gt;&lt;/span&gt;&lt;/div&gt;" style="swimlane;fontStyle=0;childLayout=stackLayout;horizontal=1;startSize=30;horizontalStack=0;resizeParent=1;resizeParentMax=0;resizeLast=0;collapsible=1;marginBottom=0;whiteSpace=wrap;html=1;fillColor=#ffe6cc;strokeColor=#d79b00;rounded=0;" parent="1" vertex="1">
          <mxGeometry x="335" y="1245" width="430" height="120" as="geometry" />
        </mxCell>
        <mxCell id="zjhLIh4-YKo7ULmHxG4K-5" value="&lt;ol style=&quot;line-height: 150%; font-size: 16px;&quot;&gt;&lt;li style=&quot;font-size: 16px;&quot;&gt;&lt;font style=&quot;font-size: 16px;&quot;&gt;Graus &amp;nbsp;&amp;nbsp;&amp;nbsp;&amp;nbsp;&amp;nbsp;&amp;nbsp;&amp;nbsp;&amp;nbsp;&amp;nbsp;&amp;nbsp; &lt;/font&gt;&lt;/li&gt;&lt;li style=&quot;font-size: 16px;&quot;&gt;&lt;font style=&quot;font-size: 16px;&quot;&gt;Mòduls professionals&lt;/font&gt;&lt;/li&gt;&lt;li style=&quot;font-size: 16px;&quot;&gt;&lt;font style=&quot;font-size: 16px;&quot;&gt;Oferta formativa &lt;/font&gt;&lt;/li&gt;&lt;/ol&gt;" style="text;strokeColor=#d6b656;fillColor=#fff2cc;align=left;verticalAlign=middle;spacingLeft=0;spacingRight=0;overflow=hidden;points=[[0,0.5],[1,0.5]];portConstraint=eastwest;rotatable=0;html=1;fontSize=16;textShadow=0;textDirection=ltr;rounded=0;whiteSpace=wrap;" parent="zjhLIh4-YKo7ULmHxG4K-4" vertex="1">
          <mxGeometry y="30" width="430" height="90" as="geometry" />
        </mxCell>
        <mxCell id="zjhLIh4-YKo7ULmHxG4K-6" value="&lt;div&gt;&lt;b&gt;&lt;span style=&quot;margin: 0px; padding: 0px; user-select: text; font-variant-ligatures: none !important; color: rgb(0, 0, 0); font-style: normal; font-variant-caps: normal; letter-spacing: normal; text-align: left; text-indent: 0px; text-transform: none; word-spacing: 0px; -webkit-text-stroke-width: 0px; white-space: pre-wrap; text-decoration-thickness: initial; text-decoration-style: initial; text-decoration-color: initial; font-size: 12pt; line-height: 20.925px; font-family: WordVisi_MSFontService, Aptos, Aptos_EmbeddedFont, Aptos_MSFontService, sans-serif;&quot; class=&quot;TextRun SCXW17088680 BCX8&quot; lang=&quot;CA-ES-VALENCIA&quot; data-contrast=&quot;auto&quot;&gt;&lt;span style=&quot;-webkit-user-drag: none; -webkit-tap-highlight-color: transparent; margin: 0px; padding: 0px; user-select: text;&quot; class=&quot;NormalTextRun SCXW17088680 BCX8&quot;&gt;BLOC 2: &lt;/span&gt;&lt;/span&gt;&lt;/b&gt;&lt;span style=&quot;margin: 0px; padding: 0px; user-select: text; font-variant-ligatures: none !important; color: rgb(0, 0, 0); font-style: normal; font-variant-caps: normal; letter-spacing: normal; text-align: left; text-indent: 0px; text-transform: none; word-spacing: 0px; -webkit-text-stroke-width: 0px; white-space: pre-wrap; text-decoration-thickness: initial; text-decoration-style: initial; text-decoration-color: initial; font-size: 12pt; line-height: 20.925px; font-family: WordVisi_MSFontService, Aptos, Aptos_EmbeddedFont, Aptos_MSFontService, sans-serif;&quot; class=&quot;TextRun SCXW17088680 BCX8&quot; lang=&quot;CA-ES-VALENCIA&quot; data-contrast=&quot;auto&quot;&gt;&lt;span style=&quot;-webkit-user-drag: none; -webkit-tap-highlight-color: transparent; margin: 0px; padding: 0px; user-select: text;&quot; class=&quot;NormalTextRun SCXW17088680 BCX8&quot;&gt;N&lt;/span&gt;&lt;span style=&quot;-webkit-user-drag: none; -webkit-tap-highlight-color: transparent; margin: 0px; padding: 0px; user-select: text;&quot; class=&quot;NormalTextRun SCXW17088680 BCX8&quot;&gt;OU&lt;/span&gt;&lt;span style=&quot;-webkit-user-drag: none; -webkit-tap-highlight-color: transparent; margin: 0px; padding: 0px; user-select: text;&quot; class=&quot;NormalTextRun SCXW17088680 BCX8&quot;&gt;S M&lt;/span&gt;&lt;span style=&quot;-webkit-user-drag: none; -webkit-tap-highlight-color: transparent; margin: 0px; padding: 0px; user-select: text;&quot; class=&quot;NormalTextRun SCXW17088680 BCX8&quot;&gt;Ò&lt;/span&gt;&lt;span style=&quot;-webkit-user-drag: none; -webkit-tap-highlight-color: transparent; margin: 0px; padding: 0px; user-select: text;&quot; class=&quot;NormalTextRun SCXW17088680 BCX8&quot;&gt;DULS PROFE&lt;/span&gt;&lt;span style=&quot;-webkit-user-drag: none; -webkit-tap-highlight-color: transparent; margin: 0px; padding: 0px; user-select: text;&quot; class=&quot;NormalTextRun SCXW17088680 BCX8&quot;&gt;S&lt;/span&gt;&lt;span style=&quot;-webkit-user-drag: none; -webkit-tap-highlight-color: transparent; margin: 0px; padding: 0px; user-select: text;&quot; class=&quot;NormalTextRun SCXW17088680 BCX8&quot;&gt;SIONALS&lt;/span&gt;&lt;/span&gt;&lt;/div&gt;" style="swimlane;fontStyle=0;childLayout=stackLayout;horizontal=1;startSize=30;horizontalStack=0;resizeParent=1;resizeParentMax=0;resizeLast=0;collapsible=1;marginBottom=0;whiteSpace=wrap;html=1;fillColor=#ffe6cc;strokeColor=#d79b00;rounded=0;shadow=0;" parent="1" vertex="1">
          <mxGeometry x="335" y="774" width="430" height="180" as="geometry" />
        </mxCell>
        <mxCell id="zjhLIh4-YKo7ULmHxG4K-7" value="&lt;p style=&quot;line-height: 150%; font-size: 16px;&quot;&gt;&lt;/p&gt;&lt;div style=&quot;font-size: 16px;&quot;&gt;&lt;div style=&quot;margin: 0px; padding: 0px; user-select: text; position: relative; color: rgb(0, 0, 0); font-family: Aptos, Aptos_MSFontService, sans-serif; font-style: normal; font-variant-ligatures: normal; font-variant-caps: normal; font-weight: 400; letter-spacing: normal; text-indent: 0px; text-transform: none; word-spacing: 0px; -webkit-text-stroke-width: 0px; white-space: normal; text-decoration-thickness: initial; text-decoration-style: initial; text-decoration-color: initial; font-size: 16px;&quot; class=&quot;ListContainerWrapper SCXW63860411 BCX8&quot;&gt;&lt;ol style=&quot;line-height: 160%; font-size: 16px;&quot;&gt;&lt;li style=&quot;margin: 0px; padding: 0px; user-select: text; overflow-wrap: break-word; white-space: pre-wrap; font-weight: normal; font-style: normal; vertical-align: baseline; font-kerning: none; color: windowtext; text-indent: 0px; font-size: 16px;&quot; class=&quot;Paragraph SCXW132095863 BCX8&quot;&gt;&lt;span style=&quot;margin: 0px; padding: 0px; user-select: text; font-variant-ligatures: none !important; line-height: 20.925px; font-family: WordVisi_MSFontService, Aptos, Aptos_EmbeddedFont, Aptos_MSFontService, sans-serif; font-size: 16px;&quot; class=&quot;TextRun SCXW132095863 BCX8&quot; lang=&quot;ES-ES&quot; data-contrast=&quot;auto&quot;&gt;&lt;span style=&quot;margin: 0px; padding: 0px; user-select: text; font-size: 16px;&quot; class=&quot;NormalTextRun SCXW132095863 BCX8&quot;&gt;Mòdul de &lt;/span&gt;&lt;span style=&quot;margin: 0px; padding: 0px; user-select: text; font-size: 16px;&quot; class=&quot;NormalTextRun SCXW132095863 BCX8&quot;&gt;Digitalització&lt;/span&gt;&lt;span style=&quot;margin: 0px; padding: 0px; user-select: text; font-size: 16px;&quot; class=&quot;NormalTextRun SCXW132095863 BCX8&quot;&gt;&amp;nbsp;&lt;/span&gt;&lt;/span&gt;&lt;span style=&quot;margin: 0px; padding: 0px; user-select: text; line-height: 20.925px; font-family: WordVisiPilcrow_MSFontService, Aptos, Aptos_EmbeddedFont, Aptos_MSFontService, sans-serif; font-size: 16px;&quot; data-ccp-props=&quot;{&amp;quot;201341983&amp;quot;:0,&amp;quot;335559740&amp;quot;:279}&quot; class=&quot;EOP SCXW132095863 BCX8&quot;&gt;&amp;nbsp;&lt;/span&gt;&lt;/li&gt;&lt;li style=&quot;margin: 0px; padding: 0px; user-select: text; overflow-wrap: break-word; white-space: pre-wrap; font-weight: normal; font-style: normal; vertical-align: baseline; font-kerning: none; color: windowtext; text-indent: 0px; font-size: 16px;&quot; class=&quot;Paragraph SCXW132095863 BCX8&quot;&gt;&lt;span style=&quot;margin: 0px; padding: 0px; user-select: text; font-variant-ligatures: none !important; line-height: 20.925px; font-family: WordVisi_MSFontService, Aptos, Aptos_EmbeddedFont, Aptos_MSFontService, sans-serif; font-size: 16px;&quot; class=&quot;TextRun SCXW132095863 BCX8&quot; lang=&quot;ES-ES&quot; data-contrast=&quot;auto&quot;&gt;&lt;span style=&quot;margin: 0px; padding: 0px; user-select: text; font-size: 16px;&quot; class=&quot;NormalTextRun SCXW132095863 BCX8&quot;&gt;Mòdul de &lt;/span&gt;&lt;span style=&quot;margin: 0px; padding: 0px; user-select: text; font-size: 16px;&quot; class=&quot;NormalTextRun SCXW132095863 BCX8&quot;&gt;Sostenibilitat&lt;/span&gt;&lt;span style=&quot;margin: 0px; padding: 0px; user-select: text; font-size: 16px;&quot; class=&quot;NormalTextRun SCXW132095863 BCX8&quot;&gt;&amp;nbsp;&lt;/span&gt;&lt;/span&gt;&lt;span style=&quot;margin: 0px; padding: 0px; user-select: text; line-height: 20.925px; font-family: WordVisiPilcrow_MSFontService, Aptos, Aptos_EmbeddedFont, Aptos_MSFontService, sans-serif; font-size: 16px;&quot; data-ccp-props=&quot;{&amp;quot;201341983&amp;quot;:0,&amp;quot;335559740&amp;quot;:279}&quot; class=&quot;EOP SCXW132095863 BCX8&quot;&gt;&amp;nbsp;&lt;/span&gt;&lt;/li&gt;&lt;li style=&quot;margin: 0px; padding: 0px; user-select: text; overflow-wrap: break-word; white-space: pre-wrap; font-weight: normal; font-style: normal; vertical-align: baseline; font-kerning: none; color: windowtext; text-indent: 0px; font-size: 16px;&quot; class=&quot;Paragraph SCXW132095863 BCX8&quot;&gt;&lt;span style=&quot;margin: 0px; padding: 0px; user-select: text; font-variant-ligatures: none !important; line-height: 20.925px; font-family: WordVisi_MSFontService, Aptos, Aptos_EmbeddedFont, Aptos_MSFontService, sans-serif; font-size: 16px;&quot; class=&quot;TextRun SCXW132095863 BCX8&quot; lang=&quot;ES-ES&quot; data-contrast=&quot;auto&quot;&gt;&lt;span style=&quot;margin: 0px; padding: 0px; user-select: text; font-size: 16px;&quot; class=&quot;NormalTextRun SCXW132095863 BCX8&quot;&gt;Mòdul &lt;/span&gt;&lt;span style=&quot;margin: 0px; padding: 0px; user-select: text; font-size: 16px;&quot; class=&quot;NormalTextRun SCXW132095863 BCX8&quot;&gt;Optatiu&lt;/span&gt;&lt;span style=&quot;margin: 0px; padding: 0px; user-select: text; font-size: 16px;&quot; class=&quot;NormalTextRun SCXW132095863 BCX8&quot;&gt;&amp;nbsp;&lt;/span&gt;&lt;/span&gt;&lt;span style=&quot;margin: 0px; padding: 0px; user-select: text; line-height: 20.925px; font-family: WordVisiPilcrow_MSFontService, Aptos, Aptos_EmbeddedFont, Aptos_MSFontService, sans-serif; font-size: 16px;&quot; data-ccp-props=&quot;{&amp;quot;201341983&amp;quot;:0,&amp;quot;335559740&amp;quot;:279}&quot; class=&quot;EOP SCXW132095863 BCX8&quot;&gt;&amp;nbsp;&lt;/span&gt;&lt;/li&gt;&lt;li style=&quot;margin: 0px; padding: 0px; user-select: text; overflow-wrap: break-word; white-space: pre-wrap; font-weight: normal; font-style: normal; vertical-align: baseline; font-kerning: none; color: windowtext; text-indent: 0px; font-size: 16px;&quot; class=&quot;Paragraph SCXW132095863 BCX8&quot;&gt;&lt;span style=&quot;margin: 0px; padding: 0px; user-select: text; font-variant-ligatures: none !important; line-height: 20.925px; font-family: WordVisi_MSFontService, Aptos, Aptos_EmbeddedFont, Aptos_MSFontService, sans-serif; font-size: 16px;&quot; class=&quot;TextRun SCXW132095863 BCX8&quot; lang=&quot;CA-ES-VALENCIA&quot; data-contrast=&quot;auto&quot;&gt;&lt;span style=&quot;margin: 0px; padding: 0px; user-select: text; font-size: 16px;&quot; class=&quot;NormalTextRun SCXW132095863 BCX8&quot;&gt;Mòdul Projecte&lt;/span&gt;&lt;/span&gt;&lt;span style=&quot;margin: 0px; padding: 0px; user-select: text; line-height: 20.925px; font-family: WordVisiPilcrow_MSFontService, Aptos, Aptos_EmbeddedFont, Aptos_MSFontService, sans-serif; font-size: 16px;&quot; data-ccp-props=&quot;{&amp;quot;201341983&amp;quot;:0,&amp;quot;335559740&amp;quot;:279}&quot; class=&quot;EOP SCXW132095863 BCX8&quot;&gt;&amp;nbsp;&lt;/span&gt;&lt;/li&gt;&lt;li style=&quot;margin: 0px; padding: 0px; user-select: text; overflow-wrap: break-word; white-space: pre-wrap; font-weight: normal; font-style: normal; vertical-align: baseline; font-kerning: none; color: windowtext; text-indent: 0px; font-size: 16px;&quot; class=&quot;Paragraph SCXW132095863 BCX8&quot;&gt;&lt;span style=&quot;margin: 0px; padding: 0px; user-select: text; font-variant-ligatures: none !important; line-height: 20.925px; font-family: WordVisi_MSFontService, Aptos, Aptos_EmbeddedFont, Aptos_MSFontService, sans-serif; font-size: 16px;&quot; class=&quot;TextRun SCXW132095863 BCX8&quot; lang=&quot;ES-ES&quot; data-contrast=&quot;auto&quot;&gt;&lt;span style=&quot;margin: 0px; padding: 0px; user-select: text; font-size: 16px;&quot; class=&quot;NormalTextRun SCXW132095863 BCX8&quot;&gt;Explicació&lt;/span&gt;&lt;span style=&quot;margin: 0px; padding: 0px; user-select: text; font-size: 16px;&quot; class=&quot;NormalTextRun SCXW132095863 BCX8&quot;&gt; &lt;/span&gt;&lt;span style=&quot;margin: 0px; padding: 0px; user-select: text; font-size: 16px;&quot; class=&quot;NormalTextRun SCXW132095863 BCX8&quot;&gt;Borsa&lt;/span&gt;&lt;span style=&quot;margin: 0px; padding: 0px; user-select: text; font-size: 16px;&quot; class=&quot;NormalTextRun SCXW132095863 BCX8&quot;&gt; &lt;/span&gt;&lt;span style=&quot;margin: 0px; padding: 0px; user-select: text; font-size: 16px;&quot; class=&quot;NormalTextRun SCXW132095863 BCX8&quot;&gt;d’hores&lt;/span&gt;&lt;span style=&quot;margin: 0px; padding: 0px; user-select: text; font-size: 16px;&quot; class=&quot;NormalTextRun SCXW132095863 BCX8&quot;&gt; &lt;/span&gt;&lt;span style=&quot;margin: 0px; padding: 0px; user-select: text; font-size: 16px;&quot; class=&quot;NormalTextRun SCXW132095863 BCX8&quot;&gt;dels&lt;/span&gt;&lt;span style=&quot;margin: 0px; padding: 0px; user-select: text; font-size: 16px;&quot; class=&quot;NormalTextRun SCXW132095863 BCX8&quot;&gt; centres&lt;/span&gt;&lt;/span&gt;&lt;/li&gt;&lt;/ol&gt;&lt;/div&gt;&lt;/div&gt;&lt;p style=&quot;font-size: 16px;&quot;&gt;&lt;/p&gt;" style="text;strokeColor=#d6b656;fillColor=#fff2cc;align=left;verticalAlign=middle;spacingLeft=0;spacingRight=0;overflow=hidden;points=[[0,0.5],[1,0.5]];portConstraint=eastwest;rotatable=0;html=1;fontSize=16;textShadow=0;textDirection=ltr;rounded=0;whiteSpace=wrap;" parent="zjhLIh4-YKo7ULmHxG4K-6" vertex="1">
          <mxGeometry y="30" width="430" height="150" as="geometry" />
        </mxCell>
        <mxCell id="zjhLIh4-YKo7ULmHxG4K-8" value="&lt;div&gt;&lt;div&gt;&lt;b&gt;&lt;span style=&quot;margin: 0px; padding: 0px; user-select: text; font-variant-ligatures: none !important; color: rgb(0, 0, 0); font-style: normal; font-variant-caps: normal; letter-spacing: normal; text-align: left; text-indent: 0px; text-transform: none; word-spacing: 0px; -webkit-text-stroke-width: 0px; white-space: pre-wrap; text-decoration-thickness: initial; text-decoration-style: initial; text-decoration-color: initial; font-size: 12pt; line-height: 20.925px; font-family: WordVisi_MSFontService, Aptos, Aptos_EmbeddedFont, Aptos_MSFontService, sans-serif;&quot; class=&quot;TextRun SCXW74523999 BCX8&quot; lang=&quot;CA-ES-VALENCIA&quot; data-contrast=&quot;auto&quot;&gt;&lt;span style=&quot;-webkit-user-drag: none; -webkit-tap-highlight-color: transparent; margin: 0px; padding: 0px; user-select: text;&quot; class=&quot;NormalTextRun SCXW74523999 BCX8&quot;&gt;BLOC 1: &lt;/span&gt;&lt;/span&gt;&lt;/b&gt;&lt;span style=&quot;margin: 0px; padding: 0px; user-select: text; font-variant-ligatures: none !important; color: rgb(0, 0, 0); font-style: normal; font-variant-caps: normal; letter-spacing: normal; text-align: left; text-indent: 0px; text-transform: none; word-spacing: 0px; -webkit-text-stroke-width: 0px; white-space: pre-wrap; text-decoration-thickness: initial; text-decoration-style: initial; text-decoration-color: initial; font-size: 12pt; line-height: 20.925px; font-family: WordVisi_MSFontService, Aptos, Aptos_EmbeddedFont, Aptos_MSFontService, sans-serif;&quot; class=&quot;TextRun SCXW74523999 BCX8&quot; lang=&quot;CA-ES-VALENCIA&quot; data-contrast=&quot;auto&quot;&gt;&lt;span style=&quot;-webkit-user-drag: none; -webkit-tap-highlight-color: transparent; margin: 0px; padding: 0px; user-select: text;&quot; class=&quot;NormalTextRun SCXW74523999 BCX8&quot;&gt;FORMACIÓ EN EMPRESA&lt;/span&gt;&lt;/span&gt;&lt;b&gt;&lt;span style=&quot;margin: 0px; padding: 0px; user-select: text; color: rgb(0, 0, 0); font-style: normal; font-variant-ligatures: normal; font-variant-caps: normal; letter-spacing: normal; text-align: left; text-indent: 0px; text-transform: none; word-spacing: 0px; -webkit-text-stroke-width: 0px; white-space: pre-wrap; text-decoration-thickness: initial; text-decoration-style: initial; text-decoration-color: initial; font-size: 12pt; line-height: 20.925px; font-family: Aptos, Aptos_EmbeddedFont, Aptos_MSFontService, sans-serif;&quot; data-ccp-props=&quot;{&amp;quot;201341983&amp;quot;:0,&amp;quot;335559740&amp;quot;:279}&quot; class=&quot;EOP SCXW74523999 BCX8&quot;&gt;&lt;br&gt;&lt;/span&gt;&lt;/b&gt;&lt;/div&gt;&lt;/div&gt;" style="swimlane;fontStyle=0;childLayout=stackLayout;horizontal=1;startSize=30;horizontalStack=0;resizeParent=1;resizeParentMax=0;resizeLast=0;collapsible=1;marginBottom=0;whiteSpace=wrap;html=1;fillColor=#ffe6cc;strokeColor=#d79b00;rounded=0;" parent="1" vertex="1">
          <mxGeometry x="335" y="520" width="430" height="210" as="geometry" />
        </mxCell>
        <mxCell id="zjhLIh4-YKo7ULmHxG4K-9" value="&lt;div style=&quot;font-size: 16px;&quot;&gt;&lt;div style=&quot;margin: 0px; padding: 0px; user-select: text; position: relative; color: rgb(0, 0, 0); font-family: Aptos, Aptos_MSFontService, sans-serif; font-style: normal; font-variant-ligatures: normal; font-variant-caps: normal; font-weight: 400; letter-spacing: normal; text-indent: 0px; text-transform: none; word-spacing: 0px; -webkit-text-stroke-width: 0px; white-space: normal; text-decoration-thickness: initial; text-decoration-style: initial; text-decoration-color: initial; font-size: 16px;&quot; class=&quot;ListContainerWrapper SCXW63860411 BCX8&quot;&gt;&lt;ol style=&quot;margin: 0px; padding: 0px; user-select: text; cursor: text; list-style-type: decimal; overflow: visible; font-size: 16px;&quot; start=&quot;1&quot; role=&quot;list&quot; class=&quot;NumberListStyle1 SCXW63860411 BCX8&quot;&gt;&lt;li style=&quot;margin: 0px 0px 0px 24px; padding: 0px; user-select: text; clear: both; cursor: text; overflow: visible; position: relative; direction: ltr; display: block; font-family: Aptos, Aptos_MSFontService, sans-serif; vertical-align: baseline; font-size: 16px;&quot; class=&quot;OutlineElement Ltr SCXW63860411 BCX8&quot; role=&quot;listitem&quot; data-aria-level=&quot;1&quot; data-aria-posinset=&quot;1&quot; aria-setsize=&quot;-1&quot; data-list-defn-props=&quot;{&amp;quot;335552541&amp;quot;:0,&amp;quot;335559685&amp;quot;:720,&amp;quot;335559991&amp;quot;:360,&amp;quot;469769242&amp;quot;:[65533,0],&amp;quot;469777803&amp;quot;:&amp;quot;left&amp;quot;,&amp;quot;469777804&amp;quot;:&amp;quot;%1.&amp;quot;,&amp;quot;469777815&amp;quot;:&amp;quot;hybridMultilevel&amp;quot;}&quot; data-listid=&quot;7&quot; data-font=&quot;&quot; data-leveltext=&quot;%1.&quot;&gt;&lt;div style=&quot;font-size: 16px;&quot;&gt;&lt;ol style=&quot;margin: 0px; padding: 0px; user-select: text; cursor: text; list-style-type: decimal; overflow: visible; font-size: 16px;&quot; start=&quot;1&quot; role=&quot;list&quot; class=&quot;NumberListStyle1 SCXW167320742 BCX8&quot;&gt;&lt;li style=&quot;margin: 0px 0px 0px 24px; padding: 0px; user-select: text; clear: both; cursor: text; overflow: visible; position: relative; direction: ltr; display: block; font-family: Aptos, Aptos_MSFontService, sans-serif; vertical-align: baseline; font-size: 16px;&quot; class=&quot;OutlineElement Ltr SCXW167320742 BCX8&quot; role=&quot;listitem&quot; data-aria-level=&quot;1&quot; data-aria-posinset=&quot;1&quot; aria-setsize=&quot;-1&quot; data-list-defn-props=&quot;{&amp;quot;335552541&amp;quot;:0,&amp;quot;335559685&amp;quot;:720,&amp;quot;335559991&amp;quot;:360,&amp;quot;469769242&amp;quot;:[65533,0],&amp;quot;469777803&amp;quot;:&amp;quot;left&amp;quot;,&amp;quot;469777804&amp;quot;:&amp;quot;%1.&amp;quot;,&amp;quot;469777815&amp;quot;:&amp;quot;hybridMultilevel&amp;quot;}&quot; data-listid=&quot;2&quot; data-font=&quot;&quot; data-leveltext=&quot;%1.&quot;&gt;&lt;ol style=&quot;line-height: 150%; font-size: 16px;&quot;&gt;&lt;li style=&quot;margin: 0px; padding: 0px; user-select: text; overflow-wrap: break-word; white-space: pre-wrap; font-weight: normal; font-style: normal; vertical-align: baseline; font-kerning: none; color: windowtext; text-indent: 0px; font-size: 16px;&quot; class=&quot;Paragraph SCXW167320742 BCX8&quot;&gt;&lt;font style=&quot;font-size: 16px;&quot;&gt;&lt;span style=&quot;margin: 0px; padding: 0px; user-select: text; font-variant-ligatures: none !important; line-height: 20.925px; font-family: Aptos, Aptos_EmbeddedFont, Aptos_MSFontService, sans-serif; font-size: 16px;&quot; class=&quot;TextRun SCXW167320742 BCX8&quot; lang=&quot;CA-ES-VALENCIA&quot; data-contrast=&quot;auto&quot;&gt;&lt;span style=&quot;margin: 0px; padding: 0px; user-select: text; font-size: 16px;&quot; class=&quot;NormalTextRun SCXW167320742 BCX8&quot;&gt;Estructura del mòdul&amp;nbsp;&lt;/span&gt;&lt;/span&gt;&lt;span style=&quot;margin: 0px; padding: 0px; user-select: text; line-height: 20.925px; font-family: Aptos, Aptos_EmbeddedFont, Aptos_MSFontService, sans-serif; font-size: 16px;&quot; data-ccp-props=&quot;{&amp;quot;201341983&amp;quot;:0,&amp;quot;335559740&amp;quot;:279}&quot; class=&quot;EOP SCXW167320742 BCX8&quot;&gt;&amp;nbsp;&lt;/span&gt;&lt;/font&gt;&lt;/li&gt;&lt;li style=&quot;margin: 0px; padding: 0px; user-select: text; overflow-wrap: break-word; white-space: pre-wrap; font-weight: normal; font-style: normal; vertical-align: baseline; font-kerning: none; color: windowtext; text-indent: 0px; font-size: 16px;&quot; class=&quot;Paragraph SCXW167320742 BCX8&quot;&gt;&lt;font style=&quot;font-size: 16px;&quot;&gt;&lt;span style=&quot;margin: 0px; padding: 0px; user-select: text; font-variant-ligatures: none !important; line-height: 20.925px; font-family: Aptos, Aptos_EmbeddedFont, Aptos_MSFontService, sans-serif; font-size: 16px;&quot; class=&quot;TextRun SCXW167320742 BCX8&quot; lang=&quot;CA-ES-VALENCIA&quot; data-contrast=&quot;auto&quot;&gt;&lt;span style=&quot;margin: 0px; padding: 0px; user-select: text; font-size: 16px;&quot; class=&quot;NormalTextRun SCXW167320742 BCX8&quot;&gt;Modalitat&lt;/span&gt;&lt;/span&gt;&lt;span style=&quot;margin: 0px; padding: 0px; user-select: text; line-height: 20.925px; font-family: Aptos, Aptos_EmbeddedFont, Aptos_MSFontService, sans-serif; font-size: 16px;&quot; data-ccp-props=&quot;{&amp;quot;201341983&amp;quot;:0,&amp;quot;335559740&amp;quot;:279}&quot; class=&quot;EOP SCXW167320742 BCX8&quot;&gt;&amp;nbsp;&lt;/span&gt;&lt;/font&gt;&lt;/li&gt;&lt;li style=&quot;margin: 0px; padding: 0px; user-select: text; overflow-wrap: break-word; white-space: pre-wrap; font-weight: normal; font-style: normal; vertical-align: baseline; font-kerning: none; color: windowtext; text-indent: 0px; font-size: 16px;&quot; class=&quot;Paragraph SCXW167320742 BCX8&quot;&gt;&lt;font style=&quot;font-size: 16px;&quot;&gt;&lt;span style=&quot;margin: 0px; padding: 0px; user-select: text; font-variant-ligatures: none !important; line-height: 20.925px; font-family: Aptos, Aptos_EmbeddedFont, Aptos_MSFontService, sans-serif; font-size: 16px;&quot; class=&quot;TextRun SCXW167320742 BCX8&quot; lang=&quot;CA-ES-VALENCIA&quot; data-contrast=&quot;auto&quot;&gt;&lt;span style=&quot;margin: 0px; padding: 0px; user-select: text; font-size: 16px;&quot; class=&quot;NormalTextRun SCXW167320742 BCX8&quot;&gt;Relació amb l’empresa&lt;/span&gt;&lt;/span&gt;&lt;span style=&quot;margin: 0px; padding: 0px; user-select: text; line-height: 20.925px; font-family: Aptos, Aptos_EmbeddedFont, Aptos_MSFontService, sans-serif; font-size: 16px;&quot; data-ccp-props=&quot;{&amp;quot;201341983&amp;quot;:0,&amp;quot;335559740&amp;quot;:279}&quot; class=&quot;EOP SCXW167320742 BCX8&quot;&gt;&amp;nbsp;&lt;/span&gt;&lt;/font&gt;&lt;/li&gt;&lt;li style=&quot;margin: 0px; padding: 0px; user-select: text; overflow-wrap: break-word; white-space: pre-wrap; font-weight: normal; font-style: normal; vertical-align: baseline; font-kerning: none; color: windowtext; text-indent: 0px; font-size: 16px;&quot; class=&quot;Paragraph SCXW167320742 BCX8&quot;&gt;&lt;font style=&quot;font-size: 16px;&quot;&gt;&lt;span style=&quot;margin: 0px; padding: 0px; user-select: text; font-variant-ligatures: none !important; line-height: 20.925px; font-family: Aptos, Aptos_EmbeddedFont, Aptos_MSFontService, sans-serif; font-size: 16px;&quot; class=&quot;TextRun SCXW167320742 BCX8&quot; lang=&quot;CA-ES-VALENCIA&quot; data-contrast=&quot;auto&quot;&gt;&lt;span style=&quot;margin: 0px; padding: 0px; user-select: text; font-size: 16px;&quot; class=&quot;NormalTextRun SCXW167320742 BCX8&quot;&gt;Criteris d’adjudicació de l’empresa&lt;/span&gt;&lt;/span&gt;&lt;span style=&quot;margin: 0px; padding: 0px; user-select: text; line-height: 20.925px; font-family: Aptos, Aptos_EmbeddedFont, Aptos_MSFontService, sans-serif; font-size: 16px;&quot; data-ccp-props=&quot;{&amp;quot;201341983&amp;quot;:0,&amp;quot;335559740&amp;quot;:279}&quot; class=&quot;EOP SCXW167320742 BCX8&quot;&gt;&amp;nbsp;&lt;/span&gt;&lt;/font&gt;&lt;/li&gt;&lt;li style=&quot;margin: 0px; padding: 0px; user-select: text; overflow-wrap: break-word; white-space: pre-wrap; font-weight: normal; font-style: normal; vertical-align: baseline; font-kerning: none; color: windowtext; text-indent: 0px; font-size: 16px;&quot; class=&quot;Paragraph SCXW167320742 BCX8&quot;&gt;&lt;font style=&quot;font-size: 16px;&quot;&gt;&lt;span style=&quot;margin: 0px; padding: 0px; user-select: text; font-variant-ligatures: none !important; line-height: 20.925px; font-family: Aptos, Aptos_EmbeddedFont, Aptos_MSFontService, sans-serif; font-size: 16px;&quot; class=&quot;TextRun SCXW167320742 BCX8&quot; lang=&quot;CA-ES-VALENCIA&quot; data-contrast=&quot;auto&quot;&gt;&lt;span style=&quot;margin: 0px; padding: 0px; user-select: text; font-size: 16px;&quot; class=&quot;NormalTextRun SCXW167320742 BCX8&quot;&gt;Tutor&lt;/span&gt;&lt;/span&gt;&lt;span style=&quot;margin: 0px; padding: 0px; user-select: text; line-height: 20.925px; font-family: Aptos, Aptos_EmbeddedFont, Aptos_MSFontService, sans-serif; font-size: 16px;&quot; data-ccp-props=&quot;{&amp;quot;201341983&amp;quot;:0,&amp;quot;335559740&amp;quot;:279}&quot; class=&quot;EOP SCXW167320742 BCX8&quot;&gt;&amp;nbsp;&lt;/span&gt;&lt;/font&gt;&lt;/li&gt;&lt;li style=&quot;margin: 0px; padding: 0px; user-select: text; overflow-wrap: break-word; white-space: pre-wrap; font-weight: normal; font-style: normal; vertical-align: baseline; font-kerning: none; color: windowtext; text-indent: 0px; font-size: 16px;&quot; class=&quot;Paragraph SCXW167320742 BCX8&quot;&gt;&lt;font style=&quot;font-size: 16px;&quot;&gt;&lt;span style=&quot;margin: 0px; padding: 0px; user-select: text; font-variant-ligatures: none !important; line-height: 20.925px; font-family: Aptos, Aptos_EmbeddedFont, Aptos_MSFontService, sans-serif; font-size: 16px;&quot; class=&quot;TextRun SCXW167320742 BCX8&quot; lang=&quot;CA-ES-VALENCIA&quot; data-contrast=&quot;auto&quot;&gt;&lt;span style=&quot;margin: 0px; padding: 0px; user-select: text; font-size: 16px;&quot; class=&quot;NormalTextRun SCXW167320742 BCX8&quot;&gt;Seguiment&lt;/span&gt;&lt;/span&gt;&lt;span style=&quot;margin: 0px; padding: 0px; user-select: text; line-height: 20.925px; font-family: Aptos, Aptos_EmbeddedFont, Aptos_MSFontService, sans-serif; font-size: 16px;&quot; data-ccp-props=&quot;{&amp;quot;201341983&amp;quot;:0,&amp;quot;335559740&amp;quot;:279}&quot; class=&quot;EOP SCXW167320742 BCX8&quot;&gt;&amp;nbsp;&lt;/span&gt;&lt;/font&gt;&lt;/li&gt;&lt;li style=&quot;margin: 0px; padding: 0px; user-select: text; overflow-wrap: break-word; white-space: pre-wrap; font-weight: normal; font-style: normal; vertical-align: baseline; font-kerning: none; color: windowtext; text-indent: 0px; font-size: 16px;&quot; class=&quot;Paragraph SCXW167320742 BCX8&quot;&gt;&lt;font style=&quot;font-size: 16px;&quot;&gt;&lt;span style=&quot;margin: 0px; padding: 0px; user-select: text; font-variant-ligatures: none !important; line-height: 20.925px; font-family: Aptos, Aptos_EmbeddedFont, Aptos_MSFontService, sans-serif; font-size: 16px;&quot; class=&quot;TextRun SCXW167320742 BCX8&quot; lang=&quot;CA-ES-VALENCIA&quot; data-contrast=&quot;auto&quot;&gt;&lt;span style=&quot;margin: 0px; padding: 0px; user-select: text; font-size: 16px;&quot; class=&quot;NormalTextRun SCXW167320742 BCX8&quot;&gt;Avaluació&lt;/span&gt;&lt;/span&gt;&lt;/font&gt;&lt;/li&gt;&lt;/ol&gt;&lt;/li&gt;&lt;/ol&gt;&lt;/div&gt;&lt;/li&gt;&lt;/ol&gt;&lt;/div&gt;&lt;/div&gt;" style="text;strokeColor=#d6b656;fillColor=#fff2cc;align=left;verticalAlign=middle;spacingLeft=0;spacingRight=0;overflow=hidden;points=[[0,0.5],[1,0.5]];portConstraint=eastwest;rotatable=0;html=1;fontSize=16;textShadow=0;textDirection=ltr;rounded=0;whiteSpace=wrap;" parent="zjhLIh4-YKo7ULmHxG4K-8" vertex="1">
          <mxGeometry y="30" width="430" height="180" as="geometry" />
        </mxCell>
        <mxCell id="zjhLIh4-YKo7ULmHxG4K-10" value="&lt;div&gt;&lt;div&gt;&lt;div align=&quot;center&quot;&gt;&lt;span style=&quot;margin: 0px; padding: 0px; user-select: text; font-variant-ligatures: none !important; color: rgb(0, 0, 0); font-style: normal; font-variant-caps: normal; font-weight: 400; letter-spacing: normal; text-indent: 0px; text-transform: none; word-spacing: 0px; -webkit-text-stroke-width: 0px; white-space: pre-wrap; text-decoration-thickness: initial; text-decoration-style: initial; text-decoration-color: initial; font-size: 12pt; line-height: 20.925px; font-family: Aptos, Aptos_EmbeddedFont, Aptos_MSFontService, sans-serif;&quot; class=&quot;TextRun SCXW99842141 BCX8&quot; lang=&quot;CA-ES-VALENCIA&quot; data-contrast=&quot;auto&quot;&gt;&lt;span style=&quot;-webkit-user-drag: none; -webkit-tap-highlight-color: transparent; margin: 0px; padding: 0px; user-select: text;&quot; class=&quot;NormalTextRun SCXW99842141 BCX8&quot;&gt;&lt;b&gt;BLOC 5: &lt;/b&gt;PROGRAMACIÓ &lt;/span&gt;&lt;span style=&quot;-webkit-user-drag: none; -webkit-tap-highlight-color: transparent; margin: 0px; padding: 0px; user-select: text;&quot; class=&quot;NormalTextRun SCXW99842141 BCX8&quot;&gt;I&lt;/span&gt;&lt;span style=&quot;-webkit-user-drag: none; -webkit-tap-highlight-color: transparent; margin: 0px; padding: 0px; user-select: text;&quot; class=&quot;NormalTextRun SCXW99842141 BCX8&quot;&gt; &lt;/span&gt;&lt;span style=&quot;-webkit-user-drag: none; -webkit-tap-highlight-color: transparent; margin: 0px; padding: 0px; user-select: text;&quot; class=&quot;NormalTextRun SCXW99842141 BCX8&quot;&gt;A&lt;/span&gt;&lt;span style=&quot;-webkit-user-drag: none; -webkit-tap-highlight-color: transparent; margin: 0px; padding: 0px; user-select: text;&quot; class=&quot;NormalTextRun SCXW99842141 BCX8&quot;&gt;VALUACIÓ&lt;/span&gt;&lt;/span&gt;&lt;span style=&quot;margin: 0px; padding: 0px; user-select: text; line-height: 20.925px; font-family: Aptos, Aptos_EmbeddedFont, Aptos_MSFontService, sans-serif; white-space: pre-wrap;&quot; data-ccp-props=&quot;{&amp;quot;201341983&amp;quot;:0,&amp;quot;335559738&amp;quot;:240,&amp;quot;335559739&amp;quot;:240,&amp;quot;335559740&amp;quot;:279}&quot; class=&quot;EOP SCXW63860411 BCX8&quot;&gt;&lt;br&gt;&lt;/span&gt;&lt;/div&gt;&lt;b&gt;&lt;span style=&quot;margin: 0px; padding: 0px; user-select: text; color: rgb(0, 0, 0); font-style: normal; font-variant-ligatures: normal; font-variant-caps: normal; letter-spacing: normal; text-align: left; text-indent: 0px; text-transform: none; word-spacing: 0px; -webkit-text-stroke-width: 0px; white-space: pre-wrap; text-decoration-thickness: initial; text-decoration-style: initial; text-decoration-color: initial; font-size: 12pt; line-height: 20.925px; font-family: Aptos, Aptos_EmbeddedFont, Aptos_MSFontService, sans-serif;&quot; data-ccp-props=&quot;{&amp;quot;201341983&amp;quot;:0,&amp;quot;335559740&amp;quot;:279}&quot; class=&quot;EOP SCXW74523999 BCX8&quot;&gt;&lt;/span&gt;&lt;/b&gt;&lt;/div&gt;&lt;/div&gt;" style="swimlane;fontStyle=0;childLayout=stackLayout;horizontal=1;startSize=30;horizontalStack=0;resizeParent=1;resizeParentMax=0;resizeLast=0;collapsible=1;marginBottom=0;whiteSpace=wrap;html=1;fillColor=#ffe6cc;strokeColor=#d79b00;rounded=0;" parent="1" vertex="1">
          <mxGeometry x="335" y="1415" width="430" height="120" as="geometry" />
        </mxCell>
        <mxCell id="zjhLIh4-YKo7ULmHxG4K-11" value="&lt;div style=&quot;font-size: 16px;&quot; align=&quot;left&quot;&gt;&lt;div style=&quot;margin: 0px; padding: 0px; user-select: text; position: relative; color: rgb(0, 0, 0); font-family: Aptos, Aptos_MSFontService, sans-serif; font-style: normal; font-variant-ligatures: normal; font-variant-caps: normal; font-weight: 400; letter-spacing: normal; text-indent: 0px; text-transform: none; word-spacing: 0px; -webkit-text-stroke-width: 0px; white-space: normal; text-decoration-thickness: initial; text-decoration-style: initial; text-decoration-color: initial; font-size: 16px;&quot; class=&quot;ListContainerWrapper SCXW63860411 BCX8&quot;&gt;&lt;ol style=&quot;margin: 0px; padding: 0px; user-select: text; cursor: text; list-style-type: decimal; overflow: visible; font-size: 16px;&quot; start=&quot;1&quot; role=&quot;list&quot; class=&quot;NumberListStyle1 SCXW92672801 BCX8&quot;&gt;&lt;li style=&quot;margin: 0px 0px 0px 24px; padding: 0px; user-select: text; clear: both; cursor: text; overflow: visible; position: relative; direction: ltr; display: block; font-family: Aptos, Aptos_MSFontService, sans-serif; vertical-align: baseline; font-size: 16px;&quot; class=&quot;OutlineElement Ltr SCXW92672801 BCX8&quot; role=&quot;listitem&quot; data-aria-level=&quot;1&quot; data-aria-posinset=&quot;1&quot; aria-setsize=&quot;-1&quot; data-list-defn-props=&quot;{&amp;quot;335552541&amp;quot;:0,&amp;quot;335559685&amp;quot;:720,&amp;quot;335559991&amp;quot;:360,&amp;quot;469769242&amp;quot;:[65533,0],&amp;quot;469777803&amp;quot;:&amp;quot;left&amp;quot;,&amp;quot;469777804&amp;quot;:&amp;quot;%1.&amp;quot;,&amp;quot;469777815&amp;quot;:&amp;quot;hybridMultilevel&amp;quot;}&quot; data-listid=&quot;3&quot; data-font=&quot;&quot; data-leveltext=&quot;%1.&quot;&gt;&lt;ol style=&quot;font-size: 16px;&quot;&gt;&lt;li style=&quot;margin: 0px; padding: 0px; user-select: text; overflow-wrap: break-word; white-space: pre-wrap; font-weight: normal; font-style: normal; vertical-align: baseline; font-kerning: none; color: windowtext; text-indent: 0px; font-size: 16px;&quot; class=&quot;Paragraph SCXW92672801 BCX8&quot;&gt;&lt;span style=&quot;margin: 0px; padding: 0px; user-select: text; font-variant-ligatures: none !important; line-height: 20.925px; font-family: Aptos, Aptos_EmbeddedFont, Aptos_MSFontService, sans-serif; font-size: 16px;&quot; class=&quot;TextRun SCXW92672801 BCX8&quot; lang=&quot;ES-ES&quot; data-contrast=&quot;auto&quot;&gt;&lt;span style=&quot;margin: 0px; padding: 0px; user-select: text; background-position: 0px 100%; background-repeat: repeat-x; background-image: var(--urlSpellingErrorV2,url(&amp;quot;data:image/svg+xml;base64,PHN2ZyB4bWxucz0iaHR0cDovL3d3dy53My5vcmcvMjAwMC9zdmciIHdpZHRoPSI1IiBoZWlnaHQ9IjQiPjxnIGZpbGw9Im5vbmUiIGZpbGwtcnVsZT0iZXZlbm9kZCI+PHBhdGggc3Ryb2tlPSIjRUIwMDAwIiBkPSJNMCAzYzEuMjUgMCAxLjI1LTIgMi41LTJTMy43NSAzIDUgMyIvPjxwYXRoIGQ9Ik0wIDBoNXY0SDB6Ii8+PC9nPjwvc3ZnPg==&amp;quot;)); border-bottom: 1px solid transparent; font-size: 16px;&quot; class=&quot;NormalTextRun SpellingErrorV2Themed SCXW92672801 BCX8&quot;&gt;Programació&lt;/span&gt;&lt;span style=&quot;margin: 0px; padding: 0px; user-select: text; font-size: 16px;&quot; class=&quot;NormalTextRun SCXW92672801 BCX8&quot;&gt; p&lt;/span&gt;&lt;span style=&quot;margin: 0px; padding: 0px; user-select: text; font-size: 16px;&quot; class=&quot;NormalTextRun SCXW92672801 BCX8&quot;&gt;e&lt;/span&gt;&lt;span style=&quot;margin: 0px; padding: 0px; user-select: text; font-size: 16px;&quot; class=&quot;NormalTextRun SCXW92672801 BCX8&quot;&gt;r &lt;/span&gt;&lt;span style=&quot;margin: 0px; padding: 0px; user-select: text; background-position: 0px 100%; background-repeat: repeat-x; background-image: var(--urlSpellingErrorV2,url(&amp;quot;data:image/svg+xml;base64,PHN2ZyB4bWxucz0iaHR0cDovL3d3dy53My5vcmcvMjAwMC9zdmciIHdpZHRoPSI1IiBoZWlnaHQ9IjQiPjxnIGZpbGw9Im5vbmUiIGZpbGwtcnVsZT0iZXZlbm9kZCI+PHBhdGggc3Ryb2tlPSIjRUIwMDAwIiBkPSJNMCAzYzEuMjUgMCAxLjI1LTIgMi41LTJTMy43NSAzIDUgMyIvPjxwYXRoIGQ9Ik0wIDBoNXY0SDB6Ii8+PC9nPjwvc3ZnPg==&amp;quot;)); border-bottom: 1px solid transparent; font-size: 16px;&quot; class=&quot;NormalTextRun SpellingErrorV2Themed SCXW92672801 BCX8&quot;&gt;Resul&lt;/span&gt;&lt;span style=&quot;margin: 0px; padding: 0px; user-select: text; background-position: 0px 100%; background-repeat: repeat-x; background-image: var(--urlSpellingErrorV2,url(&amp;quot;data:image/svg+xml;base64,PHN2ZyB4bWxucz0iaHR0cDovL3d3dy53My5vcmcvMjAwMC9zdmciIHdpZHRoPSI1IiBoZWlnaHQ9IjQiPjxnIGZpbGw9Im5vbmUiIGZpbGwtcnVsZT0iZXZlbm9kZCI+PHBhdGggc3Ryb2tlPSIjRUIwMDAwIiBkPSJNMCAzYzEuMjUgMCAxLjI1LTIgMi41LTJTMy43NSAzIDUgMyIvPjxwYXRoIGQ9Ik0wIDBoNXY0SDB6Ii8+PC9nPjwvc3ZnPg==&amp;quot;)); border-bottom: 1px solid transparent; font-size: 16px;&quot; class=&quot;NormalTextRun SpellingErrorV2Themed SCXW92672801 BCX8&quot;&gt;ta&lt;/span&gt;&lt;span style=&quot;margin: 0px; padding: 0px; user-select: text; background-position: 0px 100%; background-repeat: repeat-x; background-image: var(--urlSpellingErrorV2,url(&amp;quot;data:image/svg+xml;base64,PHN2ZyB4bWxucz0iaHR0cDovL3d3dy53My5vcmcvMjAwMC9zdmciIHdpZHRoPSI1IiBoZWlnaHQ9IjQiPjxnIGZpbGw9Im5vbmUiIGZpbGwtcnVsZT0iZXZlbm9kZCI+PHBhdGggc3Ryb2tlPSIjRUIwMDAwIiBkPSJNMCAzYzEuMjUgMCAxLjI1LTIgMi41LTJTMy43NSAzIDUgMyIvPjxwYXRoIGQ9Ik0wIDBoNXY0SDB6Ii8+PC9nPjwvc3ZnPg==&amp;quot;)); border-bottom: 1px solid transparent; font-size: 16px;&quot; class=&quot;NormalTextRun SpellingErrorV2Themed SCXW92672801 BCX8&quot;&gt;t&lt;/span&gt;&lt;span style=&quot;margin: 0px; padding: 0px; user-select: text; background-position: 0px 100%; background-repeat: repeat-x; background-image: var(--urlSpellingErrorV2,url(&amp;quot;data:image/svg+xml;base64,PHN2ZyB4bWxucz0iaHR0cDovL3d3dy53My5vcmcvMjAwMC9zdmciIHdpZHRoPSI1IiBoZWlnaHQ9IjQiPjxnIGZpbGw9Im5vbmUiIGZpbGwtcnVsZT0iZXZlbm9kZCI+PHBhdGggc3Ryb2tlPSIjRUIwMDAwIiBkPSJNMCAzYzEuMjUgMCAxLjI1LTIgMi41LTJTMy43NSAzIDUgMyIvPjxwYXRoIGQ9Ik0wIDBoNXY0SDB6Ii8+PC9nPjwvc3ZnPg==&amp;quot;)); border-bottom: 1px solid transparent; font-size: 16px;&quot; class=&quot;NormalTextRun SpellingErrorV2Themed SCXW92672801 BCX8&quot;&gt;s&lt;/span&gt;&lt;span style=&quot;margin: 0px; padding: 0px; user-select: text; font-size: 16px;&quot; class=&quot;NormalTextRun SCXW92672801 BCX8&quot;&gt;&amp;nbsp;&lt;/span&gt;&lt;span style=&quot;margin: 0px; padding: 0px; user-select: text; font-size: 16px;&quot; class=&quot;NormalTextRun SCXW92672801 BCX8&quot;&gt; &lt;/span&gt;&lt;span style=&quot;margin: 0px; padding: 0px; user-select: text; background-position: 0px 100%; background-repeat: repeat-x; background-image: var(--urlSpellingErrorV2,url(&amp;quot;data:image/svg+xml;base64,PHN2ZyB4bWxucz0iaHR0cDovL3d3dy53My5vcmcvMjAwMC9zdmciIHdpZHRoPSI1IiBoZWlnaHQ9IjQiPjxnIGZpbGw9Im5vbmUiIGZpbGwtcnVsZT0iZXZlbm9kZCI+PHBhdGggc3Ryb2tlPSIjRUIwMDAwIiBkPSJNMCAzYzEuMjUgMCAxLjI1LTIgMi41LTJTMy43NSAzIDUgMyIvPjxwYXRoIGQ9Ik0wIDBoNXY0SDB6Ii8+PC9nPjwvc3ZnPg==&amp;quot;)); border-bottom: 1px solid transparent; font-size: 16px;&quot; class=&quot;NormalTextRun SpellingErrorV2Themed SCXW92672801 BCX8&quot;&gt;d’&lt;/span&gt;&lt;span style=&quot;margin: 0px; padding: 0px; user-select: text; background-position: 0px 100%; background-repeat: repeat-x; background-image: var(--urlSpellingErrorV2,url(&amp;quot;data:image/svg+xml;base64,PHN2ZyB4bWxucz0iaHR0cDovL3d3dy53My5vcmcvMjAwMC9zdmciIHdpZHRoPSI1IiBoZWlnaHQ9IjQiPjxnIGZpbGw9Im5vbmUiIGZpbGwtcnVsZT0iZXZlbm9kZCI+PHBhdGggc3Ryb2tlPSIjRUIwMDAwIiBkPSJNMCAzYzEuMjUgMCAxLjI1LTIgMi41LTJTMy43NSAzIDUgMyIvPjxwYXRoIGQ9Ik0wIDBoNXY0SDB6Ii8+PC9nPjwvc3ZnPg==&amp;quot;)); border-bottom: 1px solid transparent; font-size: 16px;&quot; class=&quot;NormalTextRun SpellingErrorV2Themed SCXW92672801 BCX8&quot;&gt;Apren&lt;/span&gt;&lt;span style=&quot;margin: 0px; padding: 0px; user-select: text; background-position: 0px 100%; background-repeat: repeat-x; background-image: var(--urlSpellingErrorV2,url(&amp;quot;data:image/svg+xml;base64,PHN2ZyB4bWxucz0iaHR0cDovL3d3dy53My5vcmcvMjAwMC9zdmciIHdpZHRoPSI1IiBoZWlnaHQ9IjQiPjxnIGZpbGw9Im5vbmUiIGZpbGwtcnVsZT0iZXZlbm9kZCI+PHBhdGggc3Ryb2tlPSIjRUIwMDAwIiBkPSJNMCAzYzEuMjUgMCAxLjI1LTIgMi41LTJTMy43NSAzIDUgMyIvPjxwYXRoIGQ9Ik0wIDBoNXY0SDB6Ii8+PC9nPjwvc3ZnPg==&amp;quot;)); border-bottom: 1px solid transparent; font-size: 16px;&quot; class=&quot;NormalTextRun SpellingErrorV2Themed SCXW92672801 BCX8&quot;&gt;entatge&lt;/span&gt;&lt;/span&gt;&lt;span style=&quot;margin: 0px; padding: 0px; user-select: text; line-height: 20.925px; font-family: Aptos, Aptos_EmbeddedFont, Aptos_MSFontService, sans-serif; font-size: 16px;&quot; data-ccp-props=&quot;{&amp;quot;201341983&amp;quot;:0,&amp;quot;335559740&amp;quot;:279}&quot; class=&quot;EOP SCXW92672801 BCX8&quot;&gt;&amp;nbsp;&lt;/span&gt;&lt;/li&gt;&lt;li style=&quot;margin: 0px; padding: 0px; user-select: text; overflow-wrap: break-word; white-space: pre-wrap; font-weight: normal; font-style: normal; vertical-align: baseline; font-kerning: none; color: windowtext; text-indent: 0px; font-size: 16px;&quot; class=&quot;Paragraph SCXW92672801 BCX8&quot;&gt;&lt;span style=&quot;margin: 0px; padding: 0px; user-select: text; font-variant-ligatures: none !important; line-height: 20.925px; font-family: Aptos, Aptos_EmbeddedFont, Aptos_MSFontService, sans-serif; font-size: 16px;&quot; class=&quot;TextRun SCXW92672801 BCX8&quot; lang=&quot;ES-ES&quot; data-contrast=&quot;auto&quot;&gt;&lt;span style=&quot;margin: 0px; padding: 0px; user-select: text; background-position: 0px 100%; background-repeat: repeat-x; background-image: var(--urlSpellingErrorV2,url(&amp;quot;data:image/svg+xml;base64,PHN2ZyB4bWxucz0iaHR0cDovL3d3dy53My5vcmcvMjAwMC9zdmciIHdpZHRoPSI1IiBoZWlnaHQ9IjQiPjxnIGZpbGw9Im5vbmUiIGZpbGwtcnVsZT0iZXZlbm9kZCI+PHBhdGggc3Ryb2tlPSIjRUIwMDAwIiBkPSJNMCAzYzEuMjUgMCAxLjI1LTIgMi41LTJTMy43NSAzIDUgMyIvPjxwYXRoIGQ9Ik0wIDBoNXY0SDB6Ii8+PC9nPjwvc3ZnPg==&amp;quot;)); border-bottom: 1px solid transparent; font-size: 16px;&quot; class=&quot;NormalTextRun SpellingErrorV2Themed SCXW92672801 BCX8&quot;&gt;A&lt;/span&gt;&lt;span style=&quot;margin: 0px; padding: 0px; user-select: text; background-position: 0px 100%; background-repeat: repeat-x; background-image: var(--urlSpellingErrorV2,url(&amp;quot;data:image/svg+xml;base64,PHN2ZyB4bWxucz0iaHR0cDovL3d3dy53My5vcmcvMjAwMC9zdmciIHdpZHRoPSI1IiBoZWlnaHQ9IjQiPjxnIGZpbGw9Im5vbmUiIGZpbGwtcnVsZT0iZXZlbm9kZCI+PHBhdGggc3Ryb2tlPSIjRUIwMDAwIiBkPSJNMCAzYzEuMjUgMCAxLjI1LTIgMi41LTJTMy43NSAzIDUgMyIvPjxwYXRoIGQ9Ik0wIDBoNXY0SDB6Ii8+PC9nPjwvc3ZnPg==&amp;quot;)); border-bottom: 1px solid transparent; font-size: 16px;&quot; class=&quot;NormalTextRun SpellingErrorV2Themed SCXW92672801 BCX8&quot;&gt;valuació&lt;/span&gt;&lt;span style=&quot;margin: 0px; padding: 0px; user-select: text; font-size: 16px;&quot; class=&quot;NormalTextRun SCXW92672801 BCX8&quot;&gt; i &lt;/span&gt;&lt;span style=&quot;margin: 0px; padding: 0px; user-select: text; background-position: 0px 100%; background-repeat: repeat-x; background-image: var(--urlSpellingErrorV2,url(&amp;quot;data:image/svg+xml;base64,PHN2ZyB4bWxucz0iaHR0cDovL3d3dy53My5vcmcvMjAwMC9zdmciIHdpZHRoPSI1IiBoZWlnaHQ9IjQiPjxnIGZpbGw9Im5vbmUiIGZpbGwtcnVsZT0iZXZlbm9kZCI+PHBhdGggc3Ryb2tlPSIjRUIwMDAwIiBkPSJNMCAzYzEuMjUgMCAxLjI1LTIgMi41LTJTMy43NSAzIDUgMyIvPjxwYXRoIGQ9Ik0wIDBoNXY0SDB6Ii8+PC9nPjwvc3ZnPg==&amp;quot;)); border-bottom: 1px solid transparent; font-size: 16px;&quot; class=&quot;NormalTextRun SpellingErrorV2Themed SCXW92672801 BCX8&quot;&gt;Qualificació&lt;/span&gt;&lt;/span&gt;&lt;span style=&quot;margin: 0px; padding: 0px; user-select: text; line-height: 20.925px; font-family: Aptos, Aptos_EmbeddedFont, Aptos_MSFontService, sans-serif; font-size: 16px;&quot; data-ccp-props=&quot;{&amp;quot;201341983&amp;quot;:0,&amp;quot;335559740&amp;quot;:279}&quot; class=&quot;EOP SCXW92672801 BCX8&quot;&gt;&amp;nbsp;&lt;/span&gt;&lt;/li&gt;&lt;/ol&gt;&lt;/li&gt;&lt;/ol&gt;&lt;/div&gt;&lt;/div&gt;" style="text;strokeColor=#d6b656;fillColor=#fff2cc;align=left;verticalAlign=middle;spacingLeft=0;spacingRight=0;overflow=hidden;points=[[0,0.5],[1,0.5]];portConstraint=eastwest;rotatable=0;html=1;fontSize=16;textShadow=0;textDirection=ltr;rounded=0;whiteSpace=wrap;" parent="zjhLIh4-YKo7ULmHxG4K-10" vertex="1">
          <mxGeometry y="30" width="430" height="90" as="geometry" />
        </mxCell>
        <mxCell id="zjhLIh4-YKo7ULmHxG4K-15" style="edgeStyle=orthogonalEdgeStyle;rounded=0;orthogonalLoop=1;jettySize=auto;html=1;entryX=0.512;entryY=0.01;entryDx=0;entryDy=0;entryPerimeter=0;strokeWidth=4;" parent="1" source="zjhLIh4-YKo7ULmHxG4K-2" target="zjhLIh4-YKo7ULmHxG4K-4" edge="1">
          <mxGeometry relative="1" as="geometry" />
        </mxCell>
        <mxCell id="uoTYtuNdUCFG0Z2dD04v-1" value="" style="rounded=1;whiteSpace=wrap;html=1;fillColor=#f5f5f5;fontColor=#333333;strokeColor=#666666;strokeWidth=4;shadow=1;" parent="1" vertex="1">
          <mxGeometry x="2450" y="300" width="640" height="730" as="geometry" />
        </mxCell>
        <mxCell id="uoTYtuNdUCFG0Z2dD04v-13" style="edgeStyle=orthogonalEdgeStyle;rounded=0;orthogonalLoop=1;jettySize=auto;html=1;entryX=0.5;entryY=0;entryDx=0;entryDy=0;strokeWidth=4;" parent="1" source="uoTYtuNdUCFG0Z2dD04v-2" target="uoTYtuNdUCFG0Z2dD04v-5" edge="1">
          <mxGeometry relative="1" as="geometry" />
        </mxCell>
        <mxCell id="uoTYtuNdUCFG0Z2dD04v-2" value="&lt;div style=&quot;font-size: 17px;&quot;&gt;&lt;span style=&quot;margin: 0px; padding: 0px; user-select: text; color: rgb(0, 0, 0); font-family: WordVisi_MSFontService, Aptos, Aptos_EmbeddedFont, Aptos_MSFontService, sans-serif; font-size: 16px; font-style: normal; font-variant-ligatures: none; font-variant-caps: normal; font-weight: 700; letter-spacing: normal; text-align: left; text-indent: 0px; text-transform: none; word-spacing: 0px; -webkit-text-stroke-width: 0px; white-space: pre-wrap; text-decoration-thickness: initial; text-decoration-style: initial; text-decoration-color: initial;&quot; class=&quot;NormalTextRun SCXW87249612 BCX8&quot;&gt;BLO&lt;/span&gt;&lt;span style=&quot;margin: 0px; padding: 0px; user-select: text; color: rgb(0, 0, 0); font-family: WordVisi_MSFontService, Aptos, Aptos_EmbeddedFont, Aptos_MSFontService, sans-serif; font-size: 16px; font-style: normal; font-variant-ligatures: none; font-variant-caps: normal; font-weight: 700; letter-spacing: normal; text-align: left; text-indent: 0px; text-transform: none; word-spacing: 0px; -webkit-text-stroke-width: 0px; white-space: pre-wrap; text-decoration-thickness: initial; text-decoration-style: initial; text-decoration-color: initial;&quot; class=&quot;NormalTextRun SCXW87249612 BCX8&quot;&gt;C&amp;nbsp;&lt;/span&gt;&lt;span style=&quot;margin: 0px; padding: 0px; user-select: text; color: rgb(0, 0, 0); font-family: WordVisi_MSFontService, Aptos, Aptos_EmbeddedFont, Aptos_MSFontService, sans-serif; font-size: 16px; font-style: normal; font-variant-ligatures: none; font-variant-caps: normal; font-weight: 700; letter-spacing: normal; text-align: left; text-indent: 0px; text-transform: none; word-spacing: 0px; -webkit-text-stroke-width: 0px; white-space: pre-wrap; text-decoration-thickness: initial; text-decoration-style: initial; text-decoration-color: initial;&quot; class=&quot;NormalTextRun SCXW87249612 BCX8&quot;&gt; &lt;/span&gt;&lt;span style=&quot;margin: 0px; padding: 0px; user-select: text; color: rgb(0, 0, 0); font-family: WordVisi_MSFontService, Aptos, Aptos_EmbeddedFont, Aptos_MSFontService, sans-serif; font-style: normal; font-variant-ligatures: none; font-variant-caps: normal; font-weight: 700; letter-spacing: normal; text-align: left; text-indent: 0px; text-transform: none; word-spacing: 0px; -webkit-text-stroke-width: 0px; white-space: pre-wrap; text-decoration-thickness: initial; text-decoration-style: initial; text-decoration-color: initial;&quot; class=&quot;NormalTextRun SCXW87249612 BCX8&quot;&gt;1: &lt;/span&gt;FORMACIÓ INICIAL EN PROGRAMACIÓ PER COMPETÈNCIES&lt;span style=&quot;margin: 0px; padding: 0px; user-select: text; color: rgb(0, 0, 0); font-style: normal; font-variant-ligatures: normal; font-variant-caps: normal; font-weight: 400; letter-spacing: normal; text-align: left; text-indent: 0px; text-transform: none; word-spacing: 0px; -webkit-text-stroke-width: 0px; white-space: pre-wrap; text-decoration-thickness: initial; text-decoration-style: initial; text-decoration-color: initial; font-size: 12pt; line-height: 20.925px; font-family: Aptos, Aptos_EmbeddedFont, Aptos_MSFontService, sans-serif;&quot; data-ccp-props=&quot;{&amp;quot;201341983&amp;quot;:0,&amp;quot;335559740&amp;quot;:279}&quot; class=&quot;EOP SCXW27911936 BCX8&quot;&gt;&lt;br&gt;&lt;/span&gt;&lt;/div&gt;" style="swimlane;fontStyle=0;childLayout=stackLayout;horizontal=1;startSize=30;horizontalStack=0;resizeParent=1;resizeParentMax=0;resizeLast=0;collapsible=1;marginBottom=0;whiteSpace=wrap;html=1;fillColor=#ffe6cc;strokeColor=#d79b00;perimeterSpacing=0;rounded=0;shadow=1;swimlaneLine=0;" parent="1" vertex="1">
          <mxGeometry x="2485" y="594" width="580" height="190" as="geometry">
            <mxRectangle x="995" y="630" width="260" height="30" as="alternateBounds" />
          </mxGeometry>
        </mxCell>
        <mxCell id="uoTYtuNdUCFG0Z2dD04v-3" value="" style="text;strokeColor=#d6b656;fillColor=#fff2cc;align=left;verticalAlign=middle;spacingLeft=0;spacingRight=0;overflow=hidden;points=[[0,0.5],[1,0.5]];portConstraint=eastwest;rotatable=0;html=1;fontSize=16;textShadow=0;textDirection=ltr;rounded=0;glass=0;shadow=0;whiteSpace=wrap;" parent="uoTYtuNdUCFG0Z2dD04v-2" vertex="1">
          <mxGeometry y="30" width="580" height="160" as="geometry" />
        </mxCell>
        <mxCell id="uoTYtuNdUCFG0Z2dD04v-18" style="edgeStyle=orthogonalEdgeStyle;rounded=0;orthogonalLoop=1;jettySize=auto;html=1;exitX=0.5;exitY=1;exitDx=0;exitDy=0;strokeWidth=4;" parent="1" source="uoTYtuNdUCFG0Z2dD04v-5" target="uoTYtuNdUCFG0Z2dD04v-7" edge="1">
          <mxGeometry relative="1" as="geometry" />
        </mxCell>
        <mxCell id="uoTYtuNdUCFG0Z2dD04v-5" value="&lt;div align=&quot;center&quot;&gt;&lt;span style=&quot;margin: 0px; padding: 0px; user-select: text; font-variant-ligatures: none !important; color: rgb(0, 0, 0); font-style: normal; font-variant-caps: normal; font-weight: 400; letter-spacing: normal; text-indent: 0px; text-transform: none; word-spacing: 0px; -webkit-text-stroke-width: 0px; white-space: pre-wrap; text-decoration-thickness: initial; text-decoration-style: initial; text-decoration-color: initial; font-size: 12pt; line-height: 20.925px; font-family: WordVisi_MSFontService, Aptos, Aptos_EmbeddedFont, Aptos_MSFontService, sans-serif;&quot; class=&quot;TextRun SCXW128102780 BCX8&quot; lang=&quot;CA-ES-VALENCIA&quot; data-contrast=&quot;auto&quot;&gt;&lt;span style=&quot;-webkit-user-drag: none; -webkit-tap-highlight-color: transparent; margin: 0px; padding: 0px; user-select: text;&quot; class=&quot;NormalTextRun SCXW128102780 BCX8&quot;&gt;&lt;b&gt;BLOC 2: AVALUACIÓ I QUALIFICACIÓ&lt;/b&gt;&lt;/span&gt;&lt;/span&gt;&lt;/div&gt;" style="swimlane;fontStyle=0;childLayout=stackLayout;horizontal=1;startSize=30;horizontalStack=0;resizeParent=1;resizeParentMax=0;resizeLast=0;collapsible=1;marginBottom=0;whiteSpace=wrap;html=1;fillColor=#ffe6cc;strokeColor=#d79b00;rounded=0;" parent="1" vertex="1">
          <mxGeometry x="2560" y="840" width="430" height="120" as="geometry" />
        </mxCell>
        <mxCell id="uoTYtuNdUCFG0Z2dD04v-6" value="&lt;ol style=&quot;line-height: 150%; font-size: 16px;&quot;&gt;&lt;li style=&quot;font-size: 16px;&quot;&gt;&lt;font style=&quot;font-size: 16px;&quot;&gt;Graus &amp;nbsp;&amp;nbsp;&amp;nbsp;&amp;nbsp;&amp;nbsp;&amp;nbsp;&amp;nbsp;&amp;nbsp;&amp;nbsp;&amp;nbsp; &lt;/font&gt;&lt;/li&gt;&lt;li style=&quot;font-size: 16px;&quot;&gt;&lt;font style=&quot;font-size: 16px;&quot;&gt;Mòduls professionals&lt;/font&gt;&lt;/li&gt;&lt;li style=&quot;font-size: 16px;&quot;&gt;&lt;font style=&quot;font-size: 16px;&quot;&gt;Oferta formativa &lt;/font&gt;&lt;/li&gt;&lt;/ol&gt;" style="text;strokeColor=#d6b656;fillColor=#fff2cc;align=left;verticalAlign=middle;spacingLeft=0;spacingRight=0;overflow=hidden;points=[[0,0.5],[1,0.5]];portConstraint=eastwest;rotatable=0;html=1;fontSize=16;textShadow=0;textDirection=ltr;rounded=0;whiteSpace=wrap;" parent="uoTYtuNdUCFG0Z2dD04v-5" vertex="1">
          <mxGeometry y="30" width="430" height="90" as="geometry" />
        </mxCell>
        <mxCell id="uoTYtuNdUCFG0Z2dD04v-10" value="&lt;div align=&quot;center&quot;&gt;&lt;font style=&quot;font-size: 41px;&quot;&gt;FORMACIÓ PER COMPETÈNCIES&lt;/font&gt;&lt;/div&gt;" style="text;html=1;align=center;verticalAlign=middle;whiteSpace=wrap;rounded=0;fontColor=#666666;" parent="1" vertex="1">
          <mxGeometry x="2555" y="314" width="430" height="140" as="geometry" />
        </mxCell>
        <mxCell id="uoTYtuNdUCFG0Z2dD04v-11" value="&lt;p style=&quot;line-height: 210%;&quot;&gt;&lt;font style=&quot;font-size: 19px;&quot;&gt;&lt;b&gt;OBJETIU: &lt;/b&gt;Dotar de ferramentes per a poder dissenyar&lt;b&gt; &lt;/b&gt;programacions competencials&lt;b&gt;&lt;br&gt;&lt;/b&gt;&lt;/font&gt;&lt;/p&gt;" style="text;html=1;align=center;verticalAlign=middle;whiteSpace=wrap;rounded=0;" parent="1" vertex="1">
          <mxGeometry x="2590" y="464" width="370" height="91" as="geometry" />
        </mxCell>
        <mxCell id="uoTYtuNdUCFG0Z2dD04v-19" value="&lt;font style=&quot;font-size: 19px;&quot;&gt;PÍNDOLES FORMATIVES ADAPTADES A CADA FAMÍLIA PROFESSIONAL&lt;/font&gt;" style="text;html=1;align=center;verticalAlign=middle;whiteSpace=wrap;rounded=0;" parent="1" vertex="1">
          <mxGeometry x="2575" y="1375" width="400" height="65" as="geometry" />
        </mxCell>
        <mxCell id="iFQSarhkZ02GHw-TiSMD-8" value="" style="rounded=1;whiteSpace=wrap;html=1;fillColor=#f5f5f5;fontColor=#333333;strokeColor=#666666;strokeWidth=4;shadow=1;" vertex="1" parent="1">
          <mxGeometry x="1670" y="320" width="530" height="810" as="geometry" />
        </mxCell>
        <mxCell id="iFQSarhkZ02GHw-TiSMD-9" value="BLOC: CONTINGUTS CURRICULARS BÀSICS" style="swimlane;fontStyle=0;childLayout=stackLayout;horizontal=1;startSize=30;horizontalStack=0;resizeParent=1;resizeParentMax=0;resizeLast=0;collapsible=1;marginBottom=0;whiteSpace=wrap;html=1;fillColor=#ffe6cc;strokeColor=#d79b00;perimeterSpacing=0;rounded=0;shadow=1;swimlaneLine=0;" vertex="1" parent="1">
          <mxGeometry x="1725" y="630" width="420" height="190" as="geometry">
            <mxRectangle x="995" y="630" width="260" height="30" as="alternateBounds" />
          </mxGeometry>
        </mxCell>
        <mxCell id="iFQSarhkZ02GHw-TiSMD-10" value="" style="text;strokeColor=#d6b656;fillColor=#fff2cc;align=left;verticalAlign=middle;spacingLeft=0;spacingRight=0;overflow=hidden;points=[[0,0.5],[1,0.5]];portConstraint=eastwest;rotatable=0;html=1;fontSize=16;textShadow=0;textDirection=ltr;rounded=0;glass=0;shadow=0;whiteSpace=wrap;" vertex="1" parent="iFQSarhkZ02GHw-TiSMD-9">
          <mxGeometry y="30" width="420" height="160" as="geometry" />
        </mxCell>
        <mxCell id="iFQSarhkZ02GHw-TiSMD-11" value="&lt;div&gt;BLOC: CONTINGUTS CURRICULARS ESPECÍFICS FAM. PROF.&lt;/div&gt;" style="swimlane;fontStyle=0;childLayout=stackLayout;horizontal=1;startSize=30;horizontalStack=0;resizeParent=1;resizeParentMax=0;resizeLast=0;collapsible=1;marginBottom=0;whiteSpace=wrap;html=1;fillColor=#ffe6cc;strokeColor=#d79b00;rounded=0;" vertex="1" parent="1">
          <mxGeometry x="1720" y="870" width="430" height="180" as="geometry" />
        </mxCell>
        <mxCell id="iFQSarhkZ02GHw-TiSMD-12" value="" style="text;strokeColor=#d6b656;fillColor=#fff2cc;align=left;verticalAlign=middle;spacingLeft=0;spacingRight=0;overflow=hidden;points=[[0,0.5],[1,0.5]];portConstraint=eastwest;rotatable=0;html=1;fontSize=16;textShadow=0;textDirection=ltr;rounded=0;whiteSpace=wrap;" vertex="1" parent="iFQSarhkZ02GHw-TiSMD-11">
          <mxGeometry y="30" width="430" height="150" as="geometry" />
        </mxCell>
        <mxCell id="iFQSarhkZ02GHw-TiSMD-13" value="&lt;div align=&quot;center&quot;&gt;&lt;font style=&quot;font-size: 41px;&quot;&gt;FORMACIÓ PER AL MÒDUL DE &lt;/font&gt;&lt;font style=&quot;font-size: 41px;&quot;&gt;SOSTENIBILITAT&lt;/font&gt;&lt;br&gt;&lt;/div&gt;" style="text;html=1;align=center;verticalAlign=middle;whiteSpace=wrap;rounded=0;fontColor=#666666;" vertex="1" parent="1">
          <mxGeometry x="1759" y="364" width="350" height="90" as="geometry" />
        </mxCell>
        <mxCell id="iFQSarhkZ02GHw-TiSMD-14" value="&lt;p style=&quot;line-height: 210%;&quot;&gt;&lt;font style=&quot;font-size: 19px;&quot;&gt;&lt;b&gt;OBJETIU: &lt;/b&gt;Concretar la implentació de forma específica segons la familia professional a la que va dirigida&lt;b&gt;&lt;br&gt;&lt;/b&gt;&lt;/font&gt;&lt;/p&gt;" style="text;html=1;align=center;verticalAlign=middle;whiteSpace=wrap;rounded=0;" vertex="1" parent="1">
          <mxGeometry x="1755" y="500" width="370" height="91" as="geometry" />
        </mxCell>
      </root>
    </mxGraphModel>
  </diagram>
</mxfile>
